<?xml version="1.0" encoding="utf-8"?>
<!-- Generator: Adobe Illustrator 21.0.2, SVG Export Plug-In . SVG Version: 6.00 Build 0)  -->
<svg version="1.1" id="Layer_1" xmlns="http://www.w3.org/2000/svg" xmlns:xlink="http://www.w3.org/1999/xlink" x="0px" y="0px"
	 viewBox="0 0 412 170" style="enable-background:new 0 0 412 170;" xml:space="preserve">
<style type="text/css">
	.st0{clip-path:url(#SVGID_2_);fill:#ED1C24;}
	.st1{clip-path:url(#SVGID_2_);}
	.st2{clip-path:url(#SVGID_4_);fill:#FFFFFF;}
	.st3{filter:url(#Adobe_OpacityMaskFilter);}
	.st4{clip-path:url(#SVGID_6_);}
	.st5{clip-path:url(#SVGID_6_);mask:url(#SVGID_7_);}
	.st6{filter:url(#Adobe_OpacityMaskFilter_1_);}
	.st7{enable-background:new    ;}
	.st8{filter:url(#Adobe_OpacityMaskFilter_2_);}
	.st9{clip-path:url(#SVGID_13_);}
	.st10{filter:url(#Adobe_OpacityMaskFilter_3_);}
	.st11{clip-path:url(#SVGID_17_);}
	.st12{clip-path:url(#SVGID_17_);mask:url(#SVGID_18_);}
	.st13{filter:url(#Adobe_OpacityMaskFilter_4_);}
	.st14{filter:url(#Adobe_OpacityMaskFilter_5_);}
	.st15{clip-path:url(#SVGID_24_);}
</style>
<g>
	<defs>
		<rect id="SVGID_1_" width="412" height="170"/>
	</defs>
	<clipPath id="SVGID_2_">
		<use xlink:href="#SVGID_1_"  style="overflow:visible;"/>
	</clipPath>
	<rect x="15.7" y="1.9" class="st0" width="380.6" height="166.1"/>
	<g class="st1">
		<defs>
			<rect id="SVGID_3_" width="412" height="170"/>
		</defs>
		<clipPath id="SVGID_4_">
			<use xlink:href="#SVGID_3_"  style="overflow:visible;"/>
		</clipPath>
		<path class="st2" d="M63.3,54.1c23.7-8.9,50.6-14.7,78-10.6l2.8-5.2c5.7-0.9,11.4-1.7,17.1-2.2l-7.6,11.6
			c7.4,3.2,13.6,11,14.3,19.2c0,11.1-5,20.4-10.6,29l8.3-1c5.6-9.1,21.2-20,27.6-11.7l2.2-3.1c0,0,10.3-1.6,10.5-1.6
			c-9.1,16.9-14,21.5-12.8,23.1c1.4,1.9,18-12.9,24.2-24.9l9.9-1.1l-5.6,9.9c10-8.2,13.6-13.5,19.1-11.1c7.7,3.2-9.2,21.2-7.3,22.4
			c1.6,1,15.1-9,21.7-19l-9.3,1.5l3.2-6.1l9.2-1.2c10-18.4,36.1-53.4,44.2-48.3c7.4,4.8-10.5,28-33.9,44.8l-1.5,2.6l20.3-2.2
			c0.4,0.2,0.6,0.9,0.1,1.3c-6.5,5.6-19.4,19.1-12.7,23.3c6,2.2,15.2-11.6,16.1-14.5c-5.3-1.7-1.1-16.4,6.4-14.5
			c5.1,1.8,1.3,9,0,11.8c9.7-1.2,18.4-11,18.4-11c-0.1-7.8,4.9-16.2,10.6-14.2c3.7,2,0.7,7.5-5.5,14.1c-0.8,0.8-0.4,3.8-0.5,7.4
			c6.5-2.2,14-5.4,20.1-8.4c0.1-7.5,3.8-16.6,10.2-14.7c4.6,1.4,0,10.6-5.8,15.3c-0.1,10.1,1.6,16.7-1,22
			c-2.9,6.1-13.1,11.1-19.1,7.6c-6.3-3.6-0.7-11.7,3.1-14.7c3.4-2.8,12.1-6.8,12.1-6.8s0.5-3.4,0.3-5.1c-3.4,2.1-19.7,8.1-19.7,8.1
			c-0.7,6-0.6,8.4-3.4,13.9c-3.5,6.7-15.1,9.5-19,5.7c-2.7-2.6-2-9,3.7-13.5c4.2-3.4,13.2-7.1,13.2-7.1s0.8-3.4,0.5-4.8
			c-5.8,5-12.3,10-20.7,10.2c-5.1,10.2-18.7,24.2-28.3,17.9c-9.4-6.1,5.7-22.1,7.2-23.2c-3.1,0.2-9.4,1.6-9.4,1.6l-16.5,30.6
			l0.2-0.1c0,0,56.4-6.4,107.5-6.5l-6.2,5.8c2.9,2.1,6,4.1,9.1,5.9c0,0-53.3-2.3-114.8,2.7l-9,16.7l-11.1,0.8l9.7-16.7
			c0,0-27.9,0.9-89.3,9.2c0.7-1.3,0.9-1.6,1.9-3.2c54.4-10.9,91.4-13.7,91.4-13.7s8.6-14.7,8.2-14.5c-5.4,4.5-17.3,14.1-22.3,9.4
			c-3.6-4.5,9-18.9,7.5-20c-1.2-1-16.1,14.4-21.5,22.8c-3,0.2-8.7,0.9-8.7,0.9l4.3-8.4c-4.9,3.8-10.1,7.9-15.5,10.1
			c-1.6,0.6-5.1,0.8-6.5-3.3c0,0-11,10-18.5,6.2c-4-2.1-2.1-9.6-1.5-11.2l-8.8,1c-38.1,44.1-87.8,49.1-93.8,39.5
			c-6.3-10.4,16.2-24.2,47.1-34c0,0,27.4-49.4,27-49.8c-37.9-5.8-84.8,23.3-84.8,23.3L63.3,54.1z M77.7,133.7
			c4.5,5.7,41.7-0.3,66.9-31.6c-17.4,2.7-27.7,6.4-31.6,7.8c-8.2,13.4-11.6,18.3-14.7,17.8c-3.8-0.5,2.2-7.7,5.5-14.7
			C90.1,117.6,73.6,128.4,77.7,133.7 M117.9,102.8c9.8-2.6,25-5.1,30.2-5.7c4.4-7.1,18.7-30.9-1.8-38.3L117.9,102.8z M176.8,92.9
			c-2.9,3.9-6.1,10.5-3.7,12.3c2.4,1.9,9.1-3.9,11.3-6.7c3.8-5,6.9-11.8,4.6-13.1C185.3,83.4,178.8,90.1,176.8,92.9 M272.7,60.1
			c7.4-4.6,26.4-23.4,21.7-27.8C289.5,30.2,276.5,51.2,272.7,60.1 M306.5,82.5c-3.1,2.2-4.7,5.1-3.1,6.3c1.5,1.2,5.4-1.1,7-3.5
			c2.7-3.7,3.3-6.9,3.3-6.9S311.3,79,306.5,82.5 M331.2,81.2c-1.1,1-5.1,4.6-3.3,6.3c1.5,1.6,5.9-1.1,7.6-3.1
			c2.3-2.8,3.5-7.3,3.5-7.3S334.3,78.5,331.2,81.2"/>
	</g>
	<g class="st1">
		<defs>
			<rect id="SVGID_5_" x="396.3" y="1.9" width="15.7" height="166.1"/>
		</defs>
		<clipPath id="SVGID_6_">
			<use xlink:href="#SVGID_5_"  style="overflow:visible;"/>
		</clipPath>
		<defs>
			<filter id="Adobe_OpacityMaskFilter" filterUnits="userSpaceOnUse" x="382.6" y="-0.4" width="43.4" height="170.9">
				<feColorMatrix  type="matrix" values="1 0 0 0 0  0 1 0 0 0  0 0 1 0 0  0 0 0 1 0"/>
			</filter>
		</defs>
		<mask maskUnits="userSpaceOnUse" x="382.6" y="-0.4" width="43.4" height="170.9" id="SVGID_7_">
			<g class="st3">
				<g>
					<g>
						<defs>
							<polygon id="SVGID_8_" points="425.6,3.9 411.8,170.3 382.6,166.1 396.5,-0.3 							"/>
						</defs>
						<clipPath id="SVGID_9_" class="st4">
							<use xlink:href="#SVGID_8_"  style="overflow:visible;"/>
						</clipPath>
						<g style="clip-path:url(#SVGID_9_);">
							
								<image style="overflow:visible;" width="181" height="712" xlink:href="663AC99E.html"  transform="matrix(0.24 0 0 0.24 382.56 -0.4)">
							</image>
						</g>
					</g>
				</g>
			</g>
		</mask>
		<g class="st5">
			<defs>
				<filter id="Adobe_OpacityMaskFilter_1_" filterUnits="userSpaceOnUse" x="382.6" y="-0.4" width="43.4" height="170.9">
					<feColorMatrix  type="matrix" values="1 0 0 0 0  0 1 0 0 0  0 0 1 0 0  0 0 0 1 0"/>
				</filter>
			</defs>
			<mask maskUnits="userSpaceOnUse" x="382.6" y="-0.4" width="43.4" height="170.9" id="SVGID_7_">
				<g class="st6">
					<rect x="381.6" y="-1.3" width="45" height="172.5"/>
					<g class="st7">
						<g>
							<defs>
								<polygon id="SVGID_10_" points="425.6,3.9 411.8,170.3 382.6,166.1 396.5,-0.3 								"/>
							</defs>
							<clipPath id="SVGID_11_">
								<use xlink:href="#SVGID_10_"  style="overflow:visible;"/>
							</clipPath>
							<g style="clip-path:url(#SVGID_11_);">
								
									<image style="overflow:visible;" width="181" height="712" xlink:href="663AC9A2.html"  transform="matrix(0.24 0 0 0.24 382.56 -0.4)">
								</image>
							</g>
						</g>
					</g>
				</g>
			</mask>
			<g>
				<g>
					<defs>
						<polygon id="SVGID_12_" points="425.6,3.9 411.8,170.3 382.6,166.1 396.5,-0.3 						"/>
					</defs>
					<clipPath id="SVGID_13_">
						<use xlink:href="#SVGID_12_"  style="overflow:visible;"/>
					</clipPath>
					<defs>
						<filter id="Adobe_OpacityMaskFilter_2_" filterUnits="userSpaceOnUse" x="382.6" y="-0.4" width="43.4" height="170.9">
							<feColorMatrix  type="matrix" values="1 0 0 0 0  0 1 0 0 0  0 0 1 0 0  0 0 0 1 0"/>
						</filter>
					</defs>
					<mask maskUnits="userSpaceOnUse" x="382.6" y="-0.4" width="43.4" height="170.9" id="SVGID_7_">
						<g class="st8">
							<g>
								<defs>
									<polygon id="SVGID_14_" points="425.6,3.9 411.8,170.3 382.6,166.1 396.5,-0.3 									"/>
								</defs>
								<clipPath id="SVGID_15_" class="st9">
									<use xlink:href="#SVGID_14_"  style="overflow:visible;"/>
								</clipPath>
								<g style="clip-path:url(#SVGID_15_);">
									
										<image style="overflow:visible;" width="181" height="712" xlink:href="663AC9A5.html"  transform="matrix(0.24 0 0 0.24 382.56 -0.4)">
									</image>
								</g>
							</g>
						</g>
					</mask>
					<g class="st9">
						
							<image style="overflow:visible;" width="181" height="712" xlink:href="663AC9A6.html"  transform="matrix(0.24 0 0 0.24 382.56 -0.4)">
						</image>
					</g>
				</g>
			</g>
		</g>
	</g>
	<g class="st1">
		<defs>
			<rect id="SVGID_16_" y="1.9" width="15.7" height="166.1"/>
		</defs>
		<clipPath id="SVGID_17_">
			<use xlink:href="#SVGID_16_"  style="overflow:visible;"/>
		</clipPath>
		<defs>
			<filter id="Adobe_OpacityMaskFilter_3_" filterUnits="userSpaceOnUse" x="-13.7" y="-0.4" width="43.4" height="170.9">
				<feColorMatrix  type="matrix" values="1 0 0 0 0  0 1 0 0 0  0 0 1 0 0  0 0 0 1 0"/>
			</filter>
		</defs>
		<mask maskUnits="userSpaceOnUse" x="-13.7" y="-0.4" width="43.4" height="170.9" id="SVGID_18_">
			<g class="st10">
				<g>
					<g>
						<defs>
							<polygon id="SVGID_19_" points="-13.6,3.9 0.2,170.3 29.4,166.1 15.5,-0.3 							"/>
						</defs>
						<clipPath id="SVGID_20_" class="st11">
							<use xlink:href="#SVGID_19_"  style="overflow:visible;"/>
						</clipPath>
						<g style="clip-path:url(#SVGID_20_);">
							
								<image style="overflow:visible;" width="181" height="712" xlink:href="663AC9A4.html"  transform="matrix(0.24 0 0 0.24 -13.68 -0.4)">
							</image>
						</g>
					</g>
				</g>
			</g>
		</mask>
		<g class="st12">
			<defs>
				<filter id="Adobe_OpacityMaskFilter_4_" filterUnits="userSpaceOnUse" x="-13.7" y="-0.4" width="43.4" height="170.9">
					<feColorMatrix  type="matrix" values="1 0 0 0 0  0 1 0 0 0  0 0 1 0 0  0 0 0 1 0"/>
				</filter>
			</defs>
			<mask maskUnits="userSpaceOnUse" x="-13.7" y="-0.4" width="43.4" height="170.9" id="SVGID_18_">
				<g class="st13">
					<rect x="-14.6" y="-1.3" width="45" height="172.5"/>
					<g class="st7">
						<g>
							<defs>
								<polygon id="SVGID_21_" points="-13.6,3.9 0.2,170.3 29.4,166.1 15.5,-0.3 								"/>
							</defs>
							<clipPath id="SVGID_22_">
								<use xlink:href="#SVGID_21_"  style="overflow:visible;"/>
							</clipPath>
							<g style="clip-path:url(#SVGID_22_);">
								
									<image style="overflow:visible;" width="181" height="712" xlink:href="663AC9A3.html"  transform="matrix(0.24 0 0 0.24 -13.68 -0.4)">
								</image>
							</g>
						</g>
					</g>
				</g>
			</mask>
			<g>
				<g>
					<defs>
						<polygon id="SVGID_23_" points="-13.6,3.9 0.2,170.3 29.4,166.1 15.5,-0.3 						"/>
					</defs>
					<clipPath id="SVGID_24_">
						<use xlink:href="#SVGID_23_"  style="overflow:visible;"/>
					</clipPath>
					<defs>
						<filter id="Adobe_OpacityMaskFilter_5_" filterUnits="userSpaceOnUse" x="-13.7" y="-0.4" width="43.4" height="170.9">
							<feColorMatrix  type="matrix" values="1 0 0 0 0  0 1 0 0 0  0 0 1 0 0  0 0 0 1 0"/>
						</filter>
					</defs>
					<mask maskUnits="userSpaceOnUse" x="-13.7" y="-0.4" width="43.4" height="170.9" id="SVGID_18_">
						<g class="st14">
							<g>
								<defs>
									<polygon id="SVGID_25_" points="-13.6,3.9 0.2,170.3 29.4,166.1 15.5,-0.3 									"/>
								</defs>
								<clipPath id="SVGID_26_" class="st15">
									<use xlink:href="#SVGID_25_"  style="overflow:visible;"/>
								</clipPath>
								<g style="clip-path:url(#SVGID_26_);">
									
										<image style="overflow:visible;" width="181" height="712" xlink:href="663AC9AD.html"  transform="matrix(0.24 0 0 0.24 -13.68 -0.4)">
									</image>
								</g>
							</g>
						</g>
					</mask>
					<g class="st15">
						
							<image style="overflow:visible;" width="181" height="712" xlink:href="663AC9AE.html"  transform="matrix(0.24 0 0 0.24 -13.68 -0.4)">
						</image>
					</g>
				</g>
			</g>
		</g>
	</g>
</g>
</svg>
