<?xml version="1.0" encoding="utf-8"?>
<!-- Generator: Adobe Illustrator 21.0.2, SVG Export Plug-In . SVG Version: 6.00 Build 0)  -->
<svg version="1.1" id="Layer_1" xmlns="http://www.w3.org/2000/svg" xmlns:xlink="http://www.w3.org/1999/xlink" x="0px" y="0px"
	 viewBox="0 0 425.3 85" style="enable-background:new 0 0 425.3 85;" xml:space="preserve">
<style type="text/css">
	.st0{clip-path:url(#SVGID_2_);}
	.st1{filter:url(#Adobe_OpacityMaskFilter);}
	.st2{clip-path:url(#SVGID_4_);fill:url(#SVGID_6_);}
	.st3{clip-path:url(#SVGID_4_);mask:url(#SVGID_5_);fill:url(#SVGID_7_);}
	.st4{filter:url(#Adobe_OpacityMaskFilter_1_);}
	.st5{clip-path:url(#SVGID_9_);fill:url(#SVGID_11_);}
	.st6{clip-path:url(#SVGID_9_);mask:url(#SVGID_10_);fill:url(#SVGID_12_);}
	.st7{filter:url(#Adobe_OpacityMaskFilter_2_);}
	.st8{clip-path:url(#SVGID_14_);fill:url(#SVGID_16_);}
	.st9{clip-path:url(#SVGID_14_);mask:url(#SVGID_15_);fill:url(#SVGID_17_);}
	.st10{filter:url(#Adobe_OpacityMaskFilter_3_);}
	.st11{clip-path:url(#SVGID_19_);fill:url(#SVGID_21_);}
	.st12{clip-path:url(#SVGID_19_);mask:url(#SVGID_20_);fill:url(#SVGID_22_);}
	.st13{filter:url(#Adobe_OpacityMaskFilter_4_);}
	.st14{clip-path:url(#SVGID_24_);fill:url(#SVGID_26_);}
	.st15{clip-path:url(#SVGID_24_);mask:url(#SVGID_25_);fill:url(#SVGID_27_);}
	.st16{filter:url(#Adobe_OpacityMaskFilter_5_);}
	.st17{clip-path:url(#SVGID_29_);fill:url(#SVGID_31_);}
	.st18{clip-path:url(#SVGID_29_);mask:url(#SVGID_30_);fill:url(#SVGID_32_);}
	.st19{filter:url(#Adobe_OpacityMaskFilter_6_);}
	.st20{clip-path:url(#SVGID_34_);fill:url(#SVGID_36_);}
	.st21{clip-path:url(#SVGID_34_);mask:url(#SVGID_35_);fill:url(#SVGID_37_);}
	.st22{filter:url(#Adobe_OpacityMaskFilter_7_);}
	.st23{clip-path:url(#SVGID_39_);fill:url(#SVGID_41_);}
	.st24{clip-path:url(#SVGID_39_);mask:url(#SVGID_40_);fill:url(#SVGID_42_);}
	.st25{filter:url(#Adobe_OpacityMaskFilter_8_);}
	.st26{clip-path:url(#SVGID_44_);fill:url(#SVGID_46_);}
	.st27{clip-path:url(#SVGID_44_);mask:url(#SVGID_45_);fill:url(#SVGID_47_);}
	.st28{clip-path:url(#SVGID_2_);fill:#0066B1;}
	.st29{clip-path:url(#SVGID_49_);}
	.st30{clip-path:url(#SVGID_49_);fill:#0069B3;}
	.st31{clip-path:url(#SVGID_51_);}
	.st32{clip-path:url(#SVGID_55_);fill:#0066B1;}
	.st33{clip-path:url(#SVGID_55_);}
</style>
<g>
	<defs>
		<rect id="SVGID_1_" width="425.3" height="85"/>
	</defs>
	<clipPath id="SVGID_2_">
		<use xlink:href="#SVGID_1_"  style="overflow:visible;"/>
	</clipPath>
	<g class="st0">
		<defs>
			<polygon id="SVGID_3_" points="110.4,53.5 109.9,54.6 314.5,54.6 314.5,53.5 			"/>
		</defs>
		<clipPath id="SVGID_4_">
			<use xlink:href="#SVGID_3_"  style="overflow:visible;"/>
		</clipPath>
		<defs>
			<filter id="Adobe_OpacityMaskFilter" filterUnits="userSpaceOnUse" x="109.9" y="53.5" width="204.7" height="1.1">
				<feColorMatrix  type="matrix" values="1 0 0 0 0  0 1 0 0 0  0 0 1 0 0  0 0 0 1 0"/>
			</filter>
		</defs>
		<mask maskUnits="userSpaceOnUse" x="109.9" y="53.5" width="204.7" height="1.1" id="SVGID_5_">
			<g class="st1">
				
					<linearGradient id="SVGID_6_" gradientUnits="userSpaceOnUse" x1="0" y1="84.96" x2="1" y2="84.96" gradientTransform="matrix(221.6773 0 0 -221.6773 98.0576 18887.7363)">
					<stop  offset="0" style="stop-color:#FFFFFF"/>
					<stop  offset="0.2857" style="stop-color:#FFFFFF"/>
					<stop  offset="0.9683" style="stop-color:#000000"/>
					<stop  offset="1" style="stop-color:#000000"/>
				</linearGradient>
				<rect x="109.9" y="53.5" class="st2" width="204.7" height="1.1"/>
			</g>
		</mask>
		
			<linearGradient id="SVGID_7_" gradientUnits="userSpaceOnUse" x1="0" y1="84.96" x2="1" y2="84.96" gradientTransform="matrix(221.6773 0 0 -221.6773 98.0576 18887.7363)">
			<stop  offset="0" style="stop-color:#0066B1"/>
			<stop  offset="0.2857" style="stop-color:#0066B1"/>
			<stop  offset="0.9683" style="stop-color:#FFFFFF"/>
			<stop  offset="1" style="stop-color:#FFFFFF"/>
		</linearGradient>
		<rect x="109.9" y="53.5" class="st3" width="204.7" height="1.1"/>
	</g>
	<g class="st0">
		<defs>
			<polygon id="SVGID_8_" points="109.2,55.9 108.7,56.9 314.5,56.9 314.5,55.9 			"/>
		</defs>
		<clipPath id="SVGID_9_">
			<use xlink:href="#SVGID_8_"  style="overflow:visible;"/>
		</clipPath>
		<defs>
			<filter id="Adobe_OpacityMaskFilter_1_" filterUnits="userSpaceOnUse" x="108.7" y="55.9" width="205.9" height="1.1">
				<feColorMatrix  type="matrix" values="1 0 0 0 0  0 1 0 0 0  0 0 1 0 0  0 0 0 1 0"/>
			</filter>
		</defs>
		<mask maskUnits="userSpaceOnUse" x="108.7" y="55.9" width="205.9" height="1.1" id="SVGID_10_">
			<g class="st4">
				
					<linearGradient id="SVGID_11_" gradientUnits="userSpaceOnUse" x1="0" y1="84.96" x2="1" y2="84.96" gradientTransform="matrix(213.6965 0 0 -213.6965 100.8523 18212.0586)">
					<stop  offset="0" style="stop-color:#FFFFFF"/>
					<stop  offset="0.2857" style="stop-color:#FFFFFF"/>
					<stop  offset="0.9881" style="stop-color:#000000"/>
					<stop  offset="1" style="stop-color:#000000"/>
				</linearGradient>
				<rect x="108.7" y="55.9" class="st5" width="205.9" height="1.1"/>
			</g>
		</mask>
		
			<linearGradient id="SVGID_12_" gradientUnits="userSpaceOnUse" x1="0" y1="84.96" x2="1" y2="84.96" gradientTransform="matrix(213.6966 0 0 -213.6966 100.8523 18212.0605)">
			<stop  offset="0" style="stop-color:#0066B1"/>
			<stop  offset="0.2857" style="stop-color:#0066B1"/>
			<stop  offset="0.9881" style="stop-color:#FFFFFF"/>
			<stop  offset="1" style="stop-color:#FFFFFF"/>
		</linearGradient>
		<rect x="108.7" y="55.9" class="st6" width="205.9" height="1.1"/>
	</g>
	<g class="st0">
		<defs>
			<polygon id="SVGID_13_" points="108.1,58 107.3,59.7 313.8,59.7 313.8,58 			"/>
		</defs>
		<clipPath id="SVGID_14_">
			<use xlink:href="#SVGID_13_"  style="overflow:visible;"/>
		</clipPath>
		<defs>
			<filter id="Adobe_OpacityMaskFilter_2_" filterUnits="userSpaceOnUse" x="107.3" y="58" width="206.5" height="1.7">
				<feColorMatrix  type="matrix" values="1 0 0 0 0  0 1 0 0 0  0 0 1 0 0  0 0 0 1 0"/>
			</filter>
		</defs>
		<mask maskUnits="userSpaceOnUse" x="107.3" y="58" width="206.5" height="1.7" id="SVGID_15_">
			<g class="st7">
				
					<linearGradient id="SVGID_16_" gradientUnits="userSpaceOnUse" x1="0" y1="84.96" x2="1" y2="84.96" gradientTransform="matrix(221.6773 0 0 -221.6773 98.0576 18892.5273)">
					<stop  offset="0" style="stop-color:#FFFFFF"/>
					<stop  offset="0.2857" style="stop-color:#FFFFFF"/>
					<stop  offset="0.4623" style="stop-color:#898989"/>
					<stop  offset="0.8095" style="stop-color:#000000"/>
					<stop  offset="1" style="stop-color:#000000"/>
				</linearGradient>
				<rect x="107.3" y="58" class="st8" width="206.5" height="1.7"/>
			</g>
		</mask>
		
			<linearGradient id="SVGID_17_" gradientUnits="userSpaceOnUse" x1="0" y1="84.96" x2="1" y2="84.96" gradientTransform="matrix(221.6773 0 0 -221.6773 98.0576 18892.5273)">
			<stop  offset="0" style="stop-color:#0066B1"/>
			<stop  offset="0.2857" style="stop-color:#0066B1"/>
			<stop  offset="0.4623" style="stop-color:#5D92CD"/>
			<stop  offset="0.8095" style="stop-color:#FFFFFF"/>
			<stop  offset="1" style="stop-color:#FFFFFF"/>
		</linearGradient>
		<rect x="107.3" y="58" class="st9" width="206.5" height="1.7"/>
	</g>
	<g class="st0">
		<defs>
			<polygon id="SVGID_18_" points="105.5,63.2 104.6,64.9 311.4,64.9 311.4,63.2 			"/>
		</defs>
		<clipPath id="SVGID_19_">
			<use xlink:href="#SVGID_18_"  style="overflow:visible;"/>
		</clipPath>
		<defs>
			<filter id="Adobe_OpacityMaskFilter_3_" filterUnits="userSpaceOnUse" x="104.6" y="63.2" width="206.8" height="1.7">
				<feColorMatrix  type="matrix" values="1 0 0 0 0  0 1 0 0 0  0 0 1 0 0  0 0 0 1 0"/>
			</filter>
		</defs>
		<mask maskUnits="userSpaceOnUse" x="104.6" y="63.2" width="206.8" height="1.7" id="SVGID_20_">
			<g class="st10">
				
					<linearGradient id="SVGID_21_" gradientUnits="userSpaceOnUse" x1="0" y1="84.96" x2="1" y2="84.96" gradientTransform="matrix(213.6965 0 0 -213.6965 97.7342 18219.707)">
					<stop  offset="0" style="stop-color:#FFFFFF"/>
					<stop  offset="0.2857" style="stop-color:#FFFFFF"/>
					<stop  offset="0.8135" style="stop-color:#000000"/>
					<stop  offset="1" style="stop-color:#000000"/>
				</linearGradient>
				<rect x="104.6" y="63.2" class="st11" width="206.8" height="1.7"/>
			</g>
		</mask>
		
			<linearGradient id="SVGID_22_" gradientUnits="userSpaceOnUse" x1="0" y1="84.96" x2="1" y2="84.96" gradientTransform="matrix(213.6966 0 0 -213.6966 97.7342 18219.709)">
			<stop  offset="0" style="stop-color:#0066B1"/>
			<stop  offset="0.2857" style="stop-color:#0066B1"/>
			<stop  offset="0.8135" style="stop-color:#FFFFFF"/>
			<stop  offset="1" style="stop-color:#FFFFFF"/>
		</linearGradient>
		<rect x="104.6" y="63.2" class="st12" width="206.8" height="1.7"/>
	</g>
	<g class="st0">
		<defs>
			<polygon id="SVGID_23_" points="106.6,61.1 106,62.2 312.2,62.2 312.2,61.1 			"/>
		</defs>
		<clipPath id="SVGID_24_">
			<use xlink:href="#SVGID_23_"  style="overflow:visible;"/>
		</clipPath>
		<defs>
			<filter id="Adobe_OpacityMaskFilter_4_" filterUnits="userSpaceOnUse" x="106" y="61.1" width="206.2" height="1.1">
				<feColorMatrix  type="matrix" values="1 0 0 0 0  0 1 0 0 0  0 0 1 0 0  0 0 0 1 0"/>
			</filter>
		</defs>
		<mask maskUnits="userSpaceOnUse" x="106" y="61.1" width="206.2" height="1.1" id="SVGID_25_">
			<g class="st13">
				
					<linearGradient id="SVGID_26_" gradientUnits="userSpaceOnUse" x1="0" y1="84.96" x2="1" y2="84.96" gradientTransform="matrix(221.6773 0 0 -221.6773 98.0576 18895.3223)">
					<stop  offset="0" style="stop-color:#FFFFFF"/>
					<stop  offset="0.2857" style="stop-color:#FFFFFF"/>
					<stop  offset="1" style="stop-color:#000000"/>
				</linearGradient>
				<rect x="106" y="61.1" class="st14" width="206.2" height="1.1"/>
			</g>
		</mask>
		
			<linearGradient id="SVGID_27_" gradientUnits="userSpaceOnUse" x1="0" y1="84.96" x2="1" y2="84.96" gradientTransform="matrix(221.6773 0 0 -221.6773 98.0576 18895.3223)">
			<stop  offset="0" style="stop-color:#0066B1"/>
			<stop  offset="0.2857" style="stop-color:#0066B1"/>
			<stop  offset="1" style="stop-color:#FFFFFF"/>
		</linearGradient>
		<rect x="106" y="61.1" class="st15" width="206.2" height="1.1"/>
	</g>
	<g class="st0">
		<defs>
			<polygon id="SVGID_28_" points="104.2,65.7 103.7,66.8 314.5,66.8 314.5,65.7 			"/>
		</defs>
		<clipPath id="SVGID_29_">
			<use xlink:href="#SVGID_28_"  style="overflow:visible;"/>
		</clipPath>
		<defs>
			<filter id="Adobe_OpacityMaskFilter_5_" filterUnits="userSpaceOnUse" x="103.7" y="65.7" width="210.9" height="1.1">
				<feColorMatrix  type="matrix" values="1 0 0 0 0  0 1 0 0 0  0 0 1 0 0  0 0 0 1 0"/>
			</filter>
		</defs>
		<mask maskUnits="userSpaceOnUse" x="103.7" y="65.7" width="210.9" height="1.1" id="SVGID_30_">
			<g class="st16">
				
					<linearGradient id="SVGID_31_" gradientUnits="userSpaceOnUse" x1="0" y1="84.96" x2="1" y2="84.96" gradientTransform="matrix(221.6773 0 0 -221.6773 98.0576 18899.9629)">
					<stop  offset="0" style="stop-color:#FFFFFF"/>
					<stop  offset="0.2857" style="stop-color:#FFFFFF"/>
					<stop  offset="0.9087" style="stop-color:#000000"/>
					<stop  offset="1" style="stop-color:#000000"/>
				</linearGradient>
				<rect x="103.7" y="65.7" class="st17" width="210.9" height="1.1"/>
			</g>
		</mask>
		
			<linearGradient id="SVGID_32_" gradientUnits="userSpaceOnUse" x1="0" y1="84.96" x2="1" y2="84.96" gradientTransform="matrix(221.6773 0 0 -221.6773 98.0576 18899.9629)">
			<stop  offset="0" style="stop-color:#0066B1"/>
			<stop  offset="0.2857" style="stop-color:#0066B1"/>
			<stop  offset="0.9087" style="stop-color:#FFFFFF"/>
			<stop  offset="1" style="stop-color:#FFFFFF"/>
		</linearGradient>
		<rect x="103.7" y="65.7" class="st18" width="210.9" height="1.1"/>
	</g>
	<g class="st0">
		<defs>
			<polygon id="SVGID_33_" points="103,68.1 102.4,69.2 314.5,69.2 314.5,68.1 			"/>
		</defs>
		<clipPath id="SVGID_34_">
			<use xlink:href="#SVGID_33_"  style="overflow:visible;"/>
		</clipPath>
		<defs>
			<filter id="Adobe_OpacityMaskFilter_6_" filterUnits="userSpaceOnUse" x="102.4" y="68.1" width="212.1" height="1.1">
				<feColorMatrix  type="matrix" values="1 0 0 0 0  0 1 0 0 0  0 0 1 0 0  0 0 0 1 0"/>
			</filter>
		</defs>
		<mask maskUnits="userSpaceOnUse" x="102.4" y="68.1" width="212.1" height="1.1" id="SVGID_35_">
			<g class="st19">
				
					<linearGradient id="SVGID_36_" gradientUnits="userSpaceOnUse" x1="0" y1="84.96" x2="1" y2="84.96" gradientTransform="matrix(221.6773 0 0 -221.6773 98.0576 18902.3262)">
					<stop  offset="0" style="stop-color:#FFFFFF"/>
					<stop  offset="0.2857" style="stop-color:#FFFFFF"/>
					<stop  offset="0.9206" style="stop-color:#000000"/>
					<stop  offset="1" style="stop-color:#000000"/>
				</linearGradient>
				<rect x="102.4" y="68.1" class="st20" width="212.1" height="1.1"/>
			</g>
		</mask>
		
			<linearGradient id="SVGID_37_" gradientUnits="userSpaceOnUse" x1="0" y1="84.96" x2="1" y2="84.96" gradientTransform="matrix(221.6773 0 0 -221.6773 98.0576 18902.3262)">
			<stop  offset="0" style="stop-color:#0066B1"/>
			<stop  offset="0.2857" style="stop-color:#0066B1"/>
			<stop  offset="0.9206" style="stop-color:#FFFFFF"/>
			<stop  offset="1" style="stop-color:#FFFFFF"/>
		</linearGradient>
		<rect x="102.4" y="68.1" class="st21" width="212.1" height="1.1"/>
	</g>
	<g class="st0">
		<defs>
			<polygon id="SVGID_38_" points="101.5,71 101,72 306.4,72 306.4,71 			"/>
		</defs>
		<clipPath id="SVGID_39_">
			<use xlink:href="#SVGID_38_"  style="overflow:visible;"/>
		</clipPath>
		<defs>
			<filter id="Adobe_OpacityMaskFilter_7_" filterUnits="userSpaceOnUse" x="101" y="71" width="205.4" height="1.1">
				<feColorMatrix  type="matrix" values="1 0 0 0 0  0 1 0 0 0  0 0 1 0 0  0 0 0 1 0"/>
			</filter>
		</defs>
		<mask maskUnits="userSpaceOnUse" x="101" y="71" width="205.4" height="1.1" id="SVGID_40_">
			<g class="st22">
				
					<linearGradient id="SVGID_41_" gradientUnits="userSpaceOnUse" x1="0" y1="84.96" x2="1" y2="84.96" gradientTransform="matrix(221.6773 0 0 -221.6773 98.0576 18905.1914)">
					<stop  offset="0" style="stop-color:#FFFFFF"/>
					<stop  offset="0.2857" style="stop-color:#FFFFFF"/>
					<stop  offset="0.8968" style="stop-color:#000000"/>
					<stop  offset="1" style="stop-color:#000000"/>
				</linearGradient>
				<rect x="101" y="71" class="st23" width="205.4" height="1.1"/>
			</g>
		</mask>
		
			<linearGradient id="SVGID_42_" gradientUnits="userSpaceOnUse" x1="0" y1="84.96" x2="1" y2="84.96" gradientTransform="matrix(221.6773 0 0 -221.6773 98.0576 18905.1914)">
			<stop  offset="0" style="stop-color:#0066B1"/>
			<stop  offset="0.2857" style="stop-color:#0066B1"/>
			<stop  offset="0.8968" style="stop-color:#FFFFFF"/>
			<stop  offset="1" style="stop-color:#FFFFFF"/>
		</linearGradient>
		<rect x="101" y="71" class="st24" width="205.4" height="1.1"/>
	</g>
	<g class="st0">
		<defs>
			<polygon id="SVGID_43_" points="100.3,73.4 99.5,75 305.7,75 305.7,73.4 			"/>
		</defs>
		<clipPath id="SVGID_44_">
			<use xlink:href="#SVGID_43_"  style="overflow:visible;"/>
		</clipPath>
		<defs>
			<filter id="Adobe_OpacityMaskFilter_8_" filterUnits="userSpaceOnUse" x="99.5" y="73.4" width="206.2" height="1.7">
				<feColorMatrix  type="matrix" values="1 0 0 0 0  0 1 0 0 0  0 0 1 0 0  0 0 0 1 0"/>
			</filter>
		</defs>
		<mask maskUnits="userSpaceOnUse" x="99.5" y="73.4" width="206.2" height="1.7" id="SVGID_45_">
			<g class="st25">
				
					<linearGradient id="SVGID_46_" gradientUnits="userSpaceOnUse" x1="0" y1="84.96" x2="1" y2="84.96" gradientTransform="matrix(221.6773 0 0 -221.6773 98.0576 18907.9023)">
					<stop  offset="0" style="stop-color:#FFFFFF"/>
					<stop  offset="0.2857" style="stop-color:#FFFFFF"/>
					<stop  offset="0.9127" style="stop-color:#000000"/>
					<stop  offset="1" style="stop-color:#000000"/>
				</linearGradient>
				<rect x="99.5" y="73.4" class="st26" width="206.2" height="1.7"/>
			</g>
		</mask>
		
			<linearGradient id="SVGID_47_" gradientUnits="userSpaceOnUse" x1="0" y1="84.96" x2="1" y2="84.96" gradientTransform="matrix(221.6773 0 0 -221.6773 98.0576 18907.9023)">
			<stop  offset="0" style="stop-color:#0066B1"/>
			<stop  offset="0.2857" style="stop-color:#0066B1"/>
			<stop  offset="0.9127" style="stop-color:#FFFFFF"/>
			<stop  offset="1" style="stop-color:#FFFFFF"/>
		</linearGradient>
		<rect x="99.5" y="73.4" class="st27" width="206.2" height="1.7"/>
	</g>
	<polygon class="st28" points="98.6,76.7 97.9,78.1 413.1,78.1 413.1,76.7 	"/>
	<g class="st0">
		<defs>
			<rect id="SVGID_48_" y="0" width="425.3" height="85"/>
		</defs>
		<clipPath id="SVGID_49_">
			<use xlink:href="#SVGID_48_"  style="overflow:visible;"/>
		</clipPath>
		<path class="st29" d="M226.6,55.7v12.8c0,1.7-0.2,3.1-0.6,4c-0.4,0.9-1.1,1.7-2.3,2.4c-1.1,0.7-2.5,1-4.1,1c-1.6,0-3-0.3-4-0.9
			c-1-0.6-1.8-1.4-2.3-2.4c-0.5-1-0.7-2.3-0.7-3.9V55.7h3.7v12.8c0,1.8,0.4,2.9,1.1,3.5c0.7,0.6,1.6,0.8,2.6,0.8
			c1.1,0,2-0.3,2.7-0.9c0.7-0.6,1-1.7,1-3.4V55.7H226.6z M246.5,75.7h-4l-4.2-10.2l-3.9,5.1v5.1h-3.6v-20h3.6v10.5
			c0.5-0.7,0.8-1.2,1-1.5l6.6-9h3.6l-4.7,6.6L246.5,75.7z M264.8,75.7h-3.8l-3.1-8.2h-5.1v8.2h-3.6v-20h8.7c2.4,0,4.2,0.5,5.3,1.6
			c1.1,1.1,1.7,2.5,1.7,4.2c0,2.6-1.2,4.3-3.6,5.3L264.8,75.7z M252.8,64.6h4.5c1.3,0,2.3-0.3,2.9-0.8c0.6-0.5,1-1.3,1-2.3
			c0-0.9-0.3-1.6-0.9-2.1s-1.5-0.8-2.6-0.8h-4.8V64.6z M284.1,75.7h-3.9l-1.6-4.8H271l-1.6,4.8h-3.1l6.6-20h4.4L284.1,75.7z
			 M277.7,68l-2.9-8.9l-2.9,8.9H277.7z M290.1,75.7h-3.6v-20h3.6V75.7z M309.6,75.7h-3.5l-7.6-12.8l-0.6-1c-0.1-0.2-0.3-0.5-0.5-0.9
			v14.6h-2.9v-20h4l7,11.8c0.1,0.1,0.5,0.8,1.3,2.2V55.7h2.8V75.7z M327,75.7h-13v-20h12.9v3h-9.3v5.4h7.4V67h-7.4v5.6h9.4V75.7z"/>
		<rect x="4.9" y="74.9" class="st30" width="90.3" height="3.4"/>
	</g>
	<g class="st0">
		<defs>
			<path id="SVGID_50_" d="M33.5,75.3v1.4c0,0.1,0,0.2,0,0.3c0,0,0,0.1-0.1,0.1c-0.1,0-0.1,0.1-0.2,0.1c-0.1,0-0.2,0-0.2-0.1
				c0-0.1-0.1-0.1-0.1-0.2v-1.5h-0.7v1.6c0,0.3,0.1,0.5,0.3,0.6c0.2,0.1,0.4,0.2,0.7,0.2c0.3,0,0.5-0.1,0.7-0.2
				c0.2-0.1,0.3-0.3,0.3-0.6v-1.5H33.5z M39.2,75.3l-0.6,1v-1h-0.7v2.3h0.7v-0.5l0.2-0.3l0.4,0.9H40l-0.7-1.5l0.6-0.9H39.2z
				 M44.4,75.8h0.3c0.2,0,0.3,0.1,0.3,0.2c0,0.1,0,0.1-0.1,0.2c-0.1,0-0.1,0.1-0.2,0.1h-0.3V75.8z M43.7,75.3v2.3h0.7v-0.9h0.2
				l0.3,0.9h0.8l-0.4-1c0.2-0.1,0.3-0.2,0.3-0.3c0.1-0.1,0.1-0.2,0.1-0.4c0-0.2-0.1-0.4-0.2-0.5c-0.1-0.1-0.4-0.2-0.6-0.2H43.7z
				 M50.5,76l0.2,0.7h-0.4L50.5,76z M50.1,75.3l-0.7,2.3H50l0.1-0.5h0.6l0.1,0.5h0.7l-0.7-2.3H50.1z M55.3,77.7h0.7v-2.3h-0.7V77.7z
				 M61.4,75.3V76c0,0.2,0,0.4,0.1,0.6c-0.1-0.1-0.1-0.3-0.2-0.4l-0.5-0.9H60v2.3h0.6v-1.1c0-0.1,0-0.2-0.1-0.4
				c0.1,0.2,0.2,0.3,0.2,0.5l0.6,1H62v-2.3H61.4z M65.9,75.3v2.3h1.8v-0.6h-1.1v-0.4h0.9v-0.5h-0.9v-0.3h1.1v-0.5H65.9z"/>
		</defs>
		<clipPath id="SVGID_51_">
			<use xlink:href="#SVGID_50_"  style="overflow:visible;"/>
		</clipPath>
		<g class="st31">
			<defs>
				<rect id="SVGID_52_" y="0.1" width="425.3" height="85"/>
			</defs>
			<clipPath id="SVGID_53_">
				<use xlink:href="#SVGID_52_"  style="overflow:visible;"/>
			</clipPath>
			<g transform="matrix(1 0 0 1 0 0)" style="clip-path:url(#SVGID_53_);">
				
					<image style="overflow:visible;" width="1772" height="354" xlink:href="9DCC5872.html"  transform="matrix(0.24 0 0 0.24 0 0.1417)">
				</image>
			</g>
		</g>
	</g>
	<g class="st0">
		<defs>
			<rect id="SVGID_54_" y="0" width="425.3" height="85"/>
		</defs>
		<clipPath id="SVGID_55_">
			<use xlink:href="#SVGID_54_"  style="overflow:visible;"/>
		</clipPath>
		<rect x="110.7" y="48.2" class="st32" width="310.5" height="3.8"/>
		<path class="st33" d="M149.3,15.4c0,0.5,0,0.9-0.1,1.2c0,0.3-0.1,0.6-0.2,0.8c-0.1,0.2-0.2,0.3-0.3,0.4s-0.3,0.1-0.4,0.1h-7.7
			v24.8c0,0.2-0.1,0.3-0.2,0.4c-0.1,0.1-0.3,0.2-0.5,0.3c-0.2,0.1-0.6,0.1-1,0.2s-0.9,0.1-1.5,0.1c-0.6,0-1.1,0-1.5-0.1
			s-0.7-0.1-1-0.2c-0.2-0.1-0.4-0.2-0.5-0.3c-0.1-0.1-0.2-0.3-0.2-0.4V17.9h-7.7c-0.2,0-0.3,0-0.4-0.1c-0.1-0.1-0.2-0.2-0.3-0.4
			c-0.1-0.2-0.1-0.5-0.2-0.8c0-0.3-0.1-0.7-0.1-1.2c0-0.5,0-0.9,0.1-1.2c0-0.3,0.1-0.6,0.2-0.8c0.1-0.2,0.2-0.3,0.3-0.4
			c0.1-0.1,0.2-0.1,0.4-0.1h21.7c0.1,0,0.3,0,0.4,0.1c0.1,0.1,0.2,0.2,0.3,0.4c0.1,0.2,0.1,0.5,0.2,0.8
			C149.3,14.5,149.3,14.9,149.3,15.4"/>
		<path class="st33" d="M174,41.2c0,0.5,0,0.8-0.1,1.2c0,0.3-0.1,0.6-0.2,0.8c-0.1,0.2-0.2,0.3-0.3,0.4c-0.1,0.1-0.3,0.1-0.4,0.1
			h-15.5c-0.5,0-1-0.2-1.3-0.5c-0.4-0.3-0.5-0.8-0.5-1.5V14.8c0-0.7,0.2-1.2,0.5-1.5c0.4-0.3,0.8-0.5,1.3-0.5H173
			c0.1,0,0.3,0,0.4,0.1c0.1,0.1,0.2,0.2,0.3,0.4c0.1,0.2,0.1,0.5,0.2,0.8c0,0.3,0.1,0.7,0.1,1.2c0,0.4,0,0.8-0.1,1.1
			c0,0.3-0.1,0.6-0.2,0.8c-0.1,0.2-0.2,0.3-0.3,0.4c-0.1,0.1-0.2,0.1-0.4,0.1h-11v7.5h9.3c0.1,0,0.3,0,0.4,0.1
			c0.1,0.1,0.2,0.2,0.3,0.4c0.1,0.2,0.1,0.4,0.2,0.7c0,0.3,0.1,0.7,0.1,1.1c0,0.5,0,0.8-0.1,1.1c0,0.3-0.1,0.5-0.2,0.7
			c-0.1,0.2-0.2,0.3-0.3,0.4s-0.3,0.1-0.4,0.1H162v8.7h11.1c0.1,0,0.3,0,0.4,0.1c0.1,0.1,0.2,0.2,0.3,0.4c0.1,0.2,0.1,0.4,0.2,0.8
			C174,40.3,174,40.7,174,41.2"/>
		<path class="st33" d="M203.1,39c0,0.4,0,0.7,0,1s-0.1,0.5-0.1,0.7c0,0.2-0.1,0.4-0.2,0.5c-0.1,0.1-0.2,0.3-0.4,0.5
			c-0.2,0.2-0.5,0.4-1,0.7c-0.5,0.3-1.1,0.6-1.8,0.8c-0.7,0.3-1.5,0.5-2.5,0.7c-0.9,0.2-1.9,0.3-3,0.3c-2.1,0-4-0.3-5.7-1
			c-1.7-0.7-3.1-1.6-4.3-2.9c-1.2-1.3-2.1-2.9-2.7-4.8c-0.6-1.9-1-4.2-1-6.8c0-2.6,0.3-4.9,1-7c0.7-2,1.7-3.7,2.9-5.1
			c1.3-1.4,2.8-2.4,4.5-3.1c1.8-0.7,3.7-1.1,5.8-1.1c0.9,0,1.7,0.1,2.5,0.2c0.8,0.1,1.5,0.3,2.2,0.6c0.7,0.2,1.3,0.5,1.8,0.8
			c0.5,0.3,0.9,0.6,1.1,0.8c0.2,0.2,0.4,0.4,0.4,0.5c0.1,0.1,0.1,0.3,0.2,0.5s0.1,0.5,0.1,0.8c0,0.3,0,0.7,0,1.1c0,0.5,0,0.9,0,1.2
			c0,0.3-0.1,0.6-0.2,0.8c-0.1,0.2-0.2,0.4-0.3,0.5c-0.1,0.1-0.2,0.1-0.4,0.1c-0.2,0-0.5-0.1-0.9-0.4c-0.4-0.3-0.8-0.6-1.4-0.9
			c-0.6-0.3-1.3-0.7-2.1-0.9c-0.8-0.3-1.8-0.4-2.9-0.4c-1.2,0-2.3,0.3-3.3,0.8c-1,0.5-1.8,1.2-2.5,2.1c-0.7,0.9-1.2,2.1-1.5,3.4
			c-0.3,1.3-0.5,2.8-0.5,4.5c0,1.8,0.2,3.4,0.6,4.7c0.4,1.3,0.9,2.4,1.6,3.3c0.7,0.9,1.5,1.5,2.5,1.9c1,0.4,2.1,0.6,3.3,0.6
			c1.1,0,2.1-0.1,2.9-0.4c0.8-0.3,1.5-0.6,2.1-0.9c0.6-0.3,1.1-0.6,1.4-0.9c0.4-0.3,0.7-0.4,0.9-0.4c0.2,0,0.3,0,0.4,0.1
			c0.1,0.1,0.2,0.2,0.2,0.4c0.1,0.2,0.1,0.5,0.1,0.8C203.1,37.9,203.1,38.4,203.1,39"/>
		<path class="st33" d="M234.6,42.8c0,0.2-0.1,0.3-0.2,0.4c-0.1,0.1-0.3,0.2-0.5,0.3c-0.2,0.1-0.6,0.1-1,0.2c-0.4,0-0.9,0.1-1.5,0.1
			c-0.6,0-1.1,0-1.5-0.1s-0.7-0.1-1-0.2c-0.2-0.1-0.4-0.2-0.5-0.3c-0.1-0.1-0.2-0.3-0.2-0.4V30.3h-11.5v12.5c0,0.2,0,0.3-0.1,0.4
			c-0.1,0.1-0.3,0.2-0.5,0.3c-0.2,0.1-0.6,0.1-1,0.2c-0.4,0-0.9,0.1-1.5,0.1c-0.6,0-1.1,0-1.5-0.1c-0.4,0-0.7-0.1-1-0.2
			c-0.2-0.1-0.4-0.2-0.5-0.3c-0.1-0.1-0.2-0.3-0.2-0.4V13.7c0-0.2,0.1-0.3,0.2-0.4c0.1-0.1,0.3-0.2,0.5-0.3s0.6-0.1,1-0.2
			c0.4,0,0.9-0.1,1.5-0.1c0.6,0,1.1,0,1.5,0.1c0.4,0,0.7,0.1,1,0.2c0.2,0.1,0.4,0.2,0.5,0.3c0.1,0.1,0.1,0.3,0.1,0.4V25h11.5V13.7
			c0-0.2,0.1-0.3,0.2-0.4c0.1-0.1,0.3-0.2,0.5-0.3c0.2-0.1,0.5-0.1,1-0.2c0.4,0,0.9-0.1,1.5-0.1c0.6,0,1.1,0,1.5,0.1
			c0.4,0,0.7,0.1,1,0.2s0.4,0.2,0.5,0.3c0.1,0.1,0.2,0.3,0.2,0.4V42.8z"/>
		<path class="st33" d="M269.6,41.4c0,0.4-0.1,0.7-0.2,1c-0.1,0.3-0.3,0.5-0.5,0.7c-0.2,0.2-0.5,0.3-0.8,0.4
			c-0.3,0.1-0.6,0.1-0.9,0.1h-2.7c-0.6,0-1-0.1-1.4-0.2c-0.4-0.1-0.8-0.3-1.1-0.6c-0.3-0.3-0.7-0.7-1-1.2c-0.3-0.5-0.7-1.1-1.1-1.9
			l-7.7-14.4c-0.4-0.9-0.9-1.8-1.4-2.8c-0.5-1-0.9-2-1.2-2.9h0c0.1,1.1,0.1,2.3,0.1,3.4c0,1.1,0,2.3,0,3.5v16.1c0,0.2,0,0.3-0.1,0.4
			c-0.1,0.1-0.2,0.2-0.5,0.3c-0.2,0.1-0.5,0.2-0.9,0.2c-0.4,0-0.8,0.1-1.4,0.1c-0.6,0-1,0-1.4-0.1c-0.4,0-0.7-0.1-0.9-0.2
			c-0.2-0.1-0.4-0.2-0.4-0.3c-0.1-0.1-0.1-0.3-0.1-0.4V15.1c0-0.7,0.2-1.3,0.7-1.7c0.4-0.4,1-0.6,1.6-0.6h3.4c0.6,0,1.1,0.1,1.5,0.2
			c0.4,0.1,0.8,0.3,1.1,0.5c0.3,0.2,0.6,0.6,0.9,1c0.3,0.4,0.6,0.9,0.9,1.6l6,11.3c0.3,0.7,0.7,1.4,1,2c0.3,0.7,0.7,1.3,1,2
			c0.3,0.7,0.6,1.3,0.9,1.9c0.3,0.6,0.6,1.3,0.9,1.9h0c0-1.1-0.1-2.3-0.1-3.5c0-1.2,0-2.4,0-3.5V13.8c0-0.2,0-0.3,0.1-0.4
			c0.1-0.1,0.3-0.2,0.5-0.3c0.2-0.1,0.5-0.2,0.9-0.2c0.4,0,0.8-0.1,1.4-0.1c0.5,0,1,0,1.4,0.1c0.4,0,0.6,0.1,0.8,0.2
			c0.2,0.1,0.3,0.2,0.4,0.3c0.1,0.1,0.1,0.3,0.1,0.4V41.4z"/>
		<path class="st33" d="M307.2,27.9c0,2.6-0.3,4.8-1,6.9c-0.6,2-1.6,3.7-2.8,5.1c-1.3,1.4-2.8,2.5-4.7,3.2c-1.8,0.7-4,1.1-6.4,1.1
			c-2.4,0-4.5-0.3-6.3-0.9c-1.8-0.6-3.3-1.6-4.5-2.9c-1.2-1.3-2.1-2.9-2.7-4.9c-0.6-2-0.9-4.3-0.9-7c0-2.5,0.3-4.7,1-6.7
			c0.6-2,1.6-3.7,2.8-5.1c1.3-1.4,2.8-2.5,4.7-3.2c1.8-0.7,4-1.1,6.4-1.1c2.3,0,4.4,0.3,6.2,0.9c1.8,0.6,3.3,1.6,4.5,2.9
			c1.2,1.3,2.1,2.9,2.7,4.9C306.9,22.9,307.2,25.2,307.2,27.9 M300.6,28.2c0-1.6-0.1-3.1-0.4-4.4c-0.3-1.3-0.7-2.5-1.3-3.4
			c-0.6-0.9-1.4-1.7-2.4-2.2c-1-0.5-2.3-0.8-3.8-0.8c-1.5,0-2.8,0.3-3.9,0.9c-1,0.6-1.9,1.4-2.5,2.3c-0.6,1-1.1,2.1-1.3,3.4
			c-0.3,1.3-0.4,2.7-0.4,4.1c0,1.7,0.1,3.2,0.4,4.5c0.3,1.3,0.7,2.5,1.3,3.4c0.6,1,1.4,1.7,2.4,2.2c1,0.5,2.3,0.8,3.8,0.8
			c1.5,0,2.8-0.3,3.9-0.9c1-0.6,1.9-1.3,2.5-2.3c0.6-1,1.1-2.1,1.3-3.4C300.5,31.1,300.6,29.7,300.6,28.2"/>
		<path class="st33" d="M333.5,34.4c0,1.6-0.3,3-0.9,4.3c-0.6,1.2-1.4,2.2-2.5,3.1c-1,0.8-2.2,1.4-3.6,1.8c-1.4,0.4-2.9,0.6-4.4,0.6
			c-1.1,0-2.1-0.1-3-0.3c-0.9-0.2-1.7-0.4-2.4-0.6c-0.7-0.2-1.3-0.5-1.8-0.8c-0.5-0.3-0.8-0.5-1-0.7c-0.2-0.2-0.4-0.5-0.4-0.9
			c-0.1-0.4-0.1-0.9-0.1-1.7c0-0.5,0-0.9,0-1.2c0-0.3,0.1-0.6,0.2-0.8c0.1-0.2,0.2-0.4,0.3-0.4c0.1-0.1,0.3-0.1,0.4-0.1
			c0.2,0,0.5,0.1,0.9,0.4c0.4,0.3,0.9,0.6,1.6,0.9c0.6,0.3,1.4,0.6,2.3,0.9c0.9,0.3,1.9,0.4,3.1,0.4c0.8,0,1.4-0.1,2-0.3
			c0.6-0.2,1.1-0.4,1.5-0.8c0.4-0.3,0.7-0.7,1-1.2c0.2-0.5,0.3-1,0.3-1.6c0-0.7-0.2-1.3-0.6-1.8c-0.4-0.5-0.9-0.9-1.5-1.3
			c-0.6-0.4-1.3-0.8-2.1-1.1c-0.8-0.3-1.6-0.7-2.4-1.1c-0.8-0.4-1.6-0.8-2.4-1.3c-0.8-0.5-1.5-1.1-2.1-1.7s-1.1-1.5-1.5-2.4
			c-0.4-0.9-0.6-2-0.6-3.3c0-1.5,0.3-2.8,0.8-3.9c0.5-1.1,1.3-2,2.2-2.8c0.9-0.7,2-1.3,3.3-1.7c1.3-0.4,2.6-0.5,4-0.5
			c0.7,0,1.5,0.1,2.2,0.2c0.7,0.1,1.4,0.3,2,0.5c0.6,0.2,1.2,0.4,1.7,0.6s0.8,0.4,1,0.6c0.2,0.2,0.3,0.3,0.3,0.4
			c0.1,0.1,0.1,0.3,0.1,0.4c0,0.2,0.1,0.4,0.1,0.7c0,0.3,0,0.6,0,1c0,0.5,0,0.8,0,1.2c0,0.3-0.1,0.6-0.1,0.8
			c-0.1,0.2-0.1,0.4-0.2,0.5c-0.1,0.1-0.2,0.1-0.4,0.1c-0.2,0-0.5-0.1-0.8-0.3c-0.4-0.2-0.8-0.5-1.4-0.7c-0.6-0.3-1.2-0.5-1.9-0.7
			c-0.7-0.2-1.5-0.3-2.4-0.3c-0.7,0-1.3,0.1-1.8,0.3c-0.5,0.2-0.9,0.4-1.3,0.7c-0.3,0.3-0.6,0.6-0.8,1.1c-0.2,0.4-0.3,0.8-0.3,1.3
			c0,0.7,0.2,1.3,0.6,1.8s0.9,0.9,1.5,1.3c0.6,0.4,1.3,0.8,2.1,1.1c0.8,0.3,1.6,0.7,2.4,1.1c0.8,0.4,1.6,0.8,2.4,1.3
			c0.8,0.5,1.5,1.1,2.1,1.7c0.6,0.7,1.1,1.5,1.5,2.4C333.3,32.1,333.5,33.2,333.5,34.4"/>
		<path class="st33" d="M359.2,41.2c0,0.5,0,0.8-0.1,1.2c0,0.3-0.1,0.6-0.2,0.8c-0.1,0.2-0.2,0.3-0.3,0.4c-0.1,0.1-0.3,0.1-0.4,0.1
			h-15.5c-0.5,0-1-0.2-1.3-0.5c-0.4-0.3-0.5-0.8-0.5-1.5V14.8c0-0.7,0.2-1.2,0.5-1.5c0.4-0.3,0.8-0.5,1.3-0.5h15.4
			c0.1,0,0.3,0,0.4,0.1c0.1,0.1,0.2,0.2,0.3,0.4c0.1,0.2,0.1,0.5,0.2,0.8c0,0.3,0.1,0.7,0.1,1.2c0,0.4,0,0.8-0.1,1.1
			c0,0.3-0.1,0.6-0.2,0.8c-0.1,0.2-0.2,0.3-0.3,0.4c-0.1,0.1-0.2,0.1-0.4,0.1h-11v7.5h9.3c0.1,0,0.3,0,0.4,0.1
			c0.1,0.1,0.2,0.2,0.3,0.4c0.1,0.2,0.1,0.4,0.2,0.7c0,0.3,0.1,0.7,0.1,1.1c0,0.5,0,0.8-0.1,1.1c0,0.3-0.1,0.5-0.2,0.7
			c-0.1,0.2-0.2,0.3-0.3,0.4c-0.1,0.1-0.3,0.1-0.4,0.1h-9.3v8.7h11.1c0.1,0,0.3,0,0.4,0.1c0.1,0.1,0.2,0.2,0.3,0.4
			c0.1,0.2,0.1,0.4,0.2,0.8C359.2,40.3,359.2,40.7,359.2,41.2"/>
		<path class="st33" d="M393.2,41.4c0,0.4-0.1,0.7-0.2,1c-0.1,0.3-0.3,0.5-0.5,0.7c-0.2,0.2-0.5,0.3-0.8,0.4
			c-0.3,0.1-0.6,0.1-0.9,0.1h-2.7c-0.6,0-1-0.1-1.4-0.2c-0.4-0.1-0.8-0.3-1.1-0.6c-0.3-0.3-0.7-0.7-1-1.2c-0.3-0.5-0.7-1.1-1.1-1.9
			l-7.7-14.4c-0.4-0.9-0.9-1.8-1.4-2.8c-0.5-1-0.9-2-1.2-2.9h0c0.1,1.1,0.1,2.3,0.1,3.4c0,1.1,0,2.3,0,3.5v16.1c0,0.2,0,0.3-0.1,0.4
			s-0.2,0.2-0.5,0.3c-0.2,0.1-0.5,0.2-0.9,0.2c-0.4,0-0.8,0.1-1.4,0.1c-0.6,0-1,0-1.4-0.1c-0.4,0-0.6-0.1-0.9-0.2
			c-0.2-0.1-0.3-0.2-0.4-0.3c-0.1-0.1-0.1-0.3-0.1-0.4V15.1c0-0.7,0.2-1.3,0.7-1.7c0.4-0.4,1-0.6,1.6-0.6h3.4c0.6,0,1.1,0.1,1.5,0.2
			c0.4,0.1,0.8,0.3,1.1,0.5c0.3,0.2,0.6,0.6,0.9,1s0.6,0.9,0.9,1.6l6,11.3c0.3,0.7,0.7,1.4,1,2c0.3,0.7,0.7,1.3,1,2
			c0.3,0.7,0.6,1.3,0.9,1.9c0.3,0.6,0.6,1.3,0.9,1.9h0c0-1.1-0.1-2.3-0.1-3.5c0-1.2,0-2.4,0-3.5V13.8c0-0.2,0-0.3,0.1-0.4
			c0.1-0.1,0.3-0.2,0.5-0.3c0.2-0.1,0.5-0.2,0.9-0.2c0.4,0,0.8-0.1,1.4-0.1c0.5,0,1,0,1.4,0.1c0.4,0,0.6,0.1,0.8,0.2
			c0.2,0.1,0.3,0.2,0.4,0.3c0.1,0.1,0.1,0.3,0.1,0.4V41.4z"/>
		<path class="st33" d="M421,34.4c0,1.6-0.3,3-0.9,4.3c-0.6,1.2-1.4,2.2-2.5,3.1c-1,0.8-2.2,1.4-3.6,1.8c-1.4,0.4-2.9,0.6-4.4,0.6
			c-1.1,0-2.1-0.1-3-0.3c-0.9-0.2-1.7-0.4-2.4-0.6c-0.7-0.2-1.3-0.5-1.8-0.8c-0.5-0.3-0.8-0.5-1-0.7c-0.2-0.2-0.4-0.5-0.4-0.9
			c-0.1-0.4-0.1-0.9-0.1-1.7c0-0.5,0-0.9,0-1.2c0-0.3,0.1-0.6,0.2-0.8c0.1-0.2,0.2-0.4,0.3-0.4c0.1-0.1,0.3-0.1,0.4-0.1
			c0.2,0,0.5,0.1,0.9,0.4c0.4,0.3,0.9,0.6,1.6,0.9c0.6,0.3,1.4,0.6,2.3,0.9c0.9,0.3,1.9,0.4,3.1,0.4c0.8,0,1.4-0.1,2-0.3
			c0.6-0.2,1.1-0.4,1.5-0.8c0.4-0.3,0.7-0.7,1-1.2c0.2-0.5,0.3-1,0.3-1.6c0-0.7-0.2-1.3-0.6-1.8c-0.4-0.5-0.9-0.9-1.5-1.3
			c-0.6-0.4-1.3-0.8-2.1-1.1c-0.8-0.3-1.6-0.7-2.4-1.1c-0.8-0.4-1.6-0.8-2.4-1.3c-0.8-0.5-1.5-1.1-2.1-1.7c-0.6-0.7-1.1-1.5-1.5-2.4
			c-0.4-0.9-0.6-2-0.6-3.3c0-1.5,0.3-2.8,0.8-3.9c0.5-1.1,1.3-2,2.2-2.8c0.9-0.7,2-1.3,3.3-1.7c1.3-0.4,2.6-0.5,4-0.5
			c0.7,0,1.5,0.1,2.2,0.2c0.7,0.1,1.4,0.3,2,0.5c0.6,0.2,1.2,0.4,1.7,0.6c0.5,0.2,0.8,0.4,1,0.6c0.2,0.2,0.3,0.3,0.3,0.4
			c0.1,0.1,0.1,0.3,0.1,0.4c0,0.2,0.1,0.4,0.1,0.7c0,0.3,0,0.6,0,1c0,0.5,0,0.8,0,1.2c0,0.3-0.1,0.6-0.1,0.8
			c-0.1,0.2-0.1,0.4-0.2,0.5c-0.1,0.1-0.2,0.1-0.4,0.1c-0.2,0-0.5-0.1-0.8-0.3c-0.4-0.2-0.8-0.5-1.4-0.7c-0.6-0.3-1.2-0.5-1.9-0.7
			c-0.7-0.2-1.5-0.3-2.4-0.3c-0.7,0-1.3,0.1-1.8,0.3c-0.5,0.2-0.9,0.4-1.3,0.7c-0.3,0.3-0.6,0.6-0.8,1.1c-0.2,0.4-0.3,0.8-0.3,1.3
			c0,0.7,0.2,1.3,0.6,1.8s0.9,0.9,1.5,1.3c0.6,0.4,1.3,0.8,2.1,1.1c0.8,0.3,1.6,0.7,2.4,1.1c0.8,0.4,1.6,0.8,2.4,1.3
			c0.8,0.5,1.5,1.1,2.1,1.7c0.6,0.7,1.1,1.5,1.5,2.4C420.8,32.1,421,33.2,421,34.4"/>
		<path class="st32" d="M32.9,12.6l-2.5,5.3h1.3h50.2c0.2,0,0.5,0,0.7,0c1.3,0,1.4,0.1,0.8,1.2c-0.4,0.9-0.9,1.7-1.2,2.6
			c-0.3,0.8-0.8,1.2-1.5,1.3H66.3L66,23l0,0h0V23l-4.3,8.4l-13,25.4c-0.6,1.1-1.2,1.5-2.4,1.5c-5.4,0-10.8,0-16.2,0
			c-1.6,0-1.7-0.1-0.9-1.5c2.2-4.3,4.4-8.7,6.6-13L46.5,23L28,23l-2.8,5.9L4.8,73.1h90.8l13.6-29.3h-1.2c-9,0-17.9,0-26.9,0h-1.3
			l0.6,0.5c2.6,2.2,5.3,4.4,7.9,6.6c2.3,2,4.9,3.7,6.7,6.1c2.3,3.1,1.8,5.9-1.5,8c-2.1,1.3-4.5,2-6.9,2.6c-2.8,0.7-5.7,0.8-8.6,1.2
			l-53.4,0c-0.9-0.2-1.2-0.7-0.8-1.6c0.3-0.6,0.6-1.2,0.8-1.9c0.6-1.4,1.5-2,3.1-1.9c10.2,0.1,20.5,0,30.7,0c4.5,0,9,0,13.8,0
			c-2.5-2-4.7-3.8-6.9-5.6c-2.4-2-4.9-3.7-7-6c-2.6-2.8-2.4-6,0.4-8.5c0.9-0.8,1.8-1.4,2.9-1.9c4.1-2,8.4-2.9,13-2.9c12,0,24,0,36,0
			h1.1l12.1-25.9H32.9z"/>
	</g>
</g>
</svg>
