
                        <svg version="1.1" xmlns="http://www.w3.org/2000/svg" xmlns:xlink="http://www.w3.org/1999/xlink" x="0px" y="0px" viewBox="0 0 728.3 228.3" style="enable-background:new 0 0 728.3 228.3;" xml:space="preserve">
   
              <style type="text/css">
                .logo_st0 {
                  fill: #fff;
                }
              </style>
<path class="logo_st0" d="M28.7,181.2h-4.2c0-2.3-0.5-3.7-1.5-4.3s-3.4-0.9-7.2-0.9c-4.5,0-7.3,0.3-8.6,0.9c-1.3,0.6-1.9,1.9-1.9,3.9
	c0,2.3,0.5,3.7,1.5,4.1c1,0.5,4,0.8,9,1c5.9,0.2,9.6,0.7,11.2,1.7c1.6,0.9,2.4,3,2.4,6.2c0,3.5-0.9,5.7-2.7,6.7
	c-1.9,1-5.9,1.5-12.2,1.5c-5.5,0-9-0.5-10.9-1.5c-1.8-1-2.7-3.1-2.7-6.2V193h4.2v0.7c0,2.5,0.5,4.1,1.6,4.7c1,0.6,3.7,0.9,7.9,0.9
	c4.9,0,7.9-0.3,9-0.9c1.1-0.6,1.7-2.3,1.7-4.9c0-1.7-0.4-2.9-1.1-3.5c-0.8-0.6-2.4-0.9-4.8-1l-4.4-0.2l-4.2-0.2
	c-6.4-0.3-9.6-2.8-9.6-7.4c0-3.2,0.9-5.4,2.8-6.4c1.9-1.1,5.6-1.6,11.1-1.6c5.6,0,9.3,0.5,11,1.5C27.8,175.8,28.7,177.9,28.7,181.2
	L28.7,181.2z"/>
<path class="logo_st0" d="M637.6,173.6v28.2h-7l-15.8-19.2l-2.6-3.2l-1.3-1.6l-1.3-1.6h-0.1v1v1.1v2.1v21.3h-4.2v-28.2h6.9l13.8,16.8l3.6,4.4l1.8,2.2
	l1.8,2.2h0.1V198v-1.1V195v-21.4H637.6L637.6,173.6z"/>
<path class="logo_st0" d="M527.9,202.1v-2.7c6,0,9.5-0.5,10.5-1.5s1.5-4.4,1.5-10.2v-1.8v-2.7c0-3.1-0.7-5.1-2.1-5.9c-1.4-0.9-4.7-1.3-9.9-1.3v-2.7
	l0,0c7.1,0,11.6,0.8,13.4,2.3c1.8,1.6,2.7,5.4,2.7,11.7c0,6.7-0.9,10.8-2.6,12.4C539.6,201.3,535.1,202.1,527.9,202.1L527.9,202.1
	L527.9,202.1z M527.9,173.2v2.7l0,0c-6,0-9.5,0.5-10.5,1.5s-1.5,4.4-1.5,10.2s0.5,9.2,1.5,10.2s4.5,1.5,10.5,1.5l0,0v2.7
	c-7.2,0-11.7-0.8-13.5-2.3c-1.7-1.5-2.6-5.6-2.6-12.1v-2v-2.7c0-3.7,1.1-6.3,3.4-7.7C517.5,173.9,521.7,173.3,527.9,173.2
	L527.9,173.2z"/>
<path class="logo_st0" d="M450.2,173.6v28.2h-4.3v-28.2H450.2z"/>
<path class="logo_st0" d="M373.3,176.5v25.3H369v-25.3h-12.3v-2.9h28.8v2.9H373.3L373.3,176.5z"/>
<path class="logo_st0" d="M292.2,173.6h4.2v19.7c0,3.6-0.9,6-2.9,7.1c-1.9,1.1-6,1.7-12.1,1.7c-5.8,0-9.7-0.6-11.8-1.6c-2.1-1.1-3.1-3.2-3.1-6.2v-1
	v-19.7h4.3v19.7c0,2.7,0.6,4.4,1.7,5c1.2,0.7,4,1,8.6,1c4.9,0,8-0.3,9.2-1s1.8-2.4,1.8-5.1L292.2,173.6L292.2,173.6z"/>
<path class="logo_st0" d="M186.7,173.6v25.3h19.4v2.9h-23.6v-28.2H186.7L186.7,173.6z"/>
<path class="logo_st0" d="M104.9,202.1v-2.7c6,0,9.5-0.5,10.5-1.5s1.5-4.4,1.5-10.2v-1.8v-2.7c0-3.1-0.7-5.1-2.1-5.9c-1.4-0.9-4.7-1.3-9.9-1.3v-2.7
	l0,0c7.1,0,11.6,0.8,13.4,2.3c1.8,1.6,2.7,5.4,2.7,11.7c0,6.7-0.9,10.8-2.6,12.4C116.7,201.3,112.2,202.1,104.9,202.1L104.9,202.1
	L104.9,202.1z M104.9,173.2v2.7l0,0c-6,0-9.5,0.5-10.5,1.5s-1.5,4.4-1.5,10.2s0.5,9.2,1.5,10.2s4.5,1.5,10.5,1.5l0,0v2.7
	c-7.2,0-11.7-0.8-13.5-2.3c-1.7-1.5-2.6-5.6-2.6-12.1v-2l0.1-2.7c0-3.7,1.1-6.3,3.4-7.7C94.5,173.9,98.7,173.3,104.9,173.2z"/>
<path class="logo_st0" d="M727.3,181.2h-4.2c0-2.3-0.5-3.7-1.5-4.3s-3.4-0.9-7.2-0.9c-4.5,0-7.3,0.3-8.6,0.9c-1.3,0.6-1.9,1.9-1.9,3.9
	c0,2.3,0.5,3.7,1.5,4.1c1,0.5,4,0.8,9,1c5.9,0.2,9.6,0.7,11.2,1.7c1.6,0.9,2.4,3,2.4,6.2c0,3.5-0.9,5.7-2.8,6.7
	c-1.8,1-5.9,1.5-12.2,1.5c-5.4,0-9-0.5-10.8-1.5s-2.7-3.1-2.7-6.2V193h4.2v0.7c0,2.5,0.5,4.1,1.5,4.7c1,0.6,3.7,0.9,7.9,0.9
	c4.9,0,7.9-0.3,9-0.9c1.1-0.6,1.7-2.3,1.7-4.9c0-1.7-0.4-2.9-1.1-3.5c-0.8-0.6-2.4-0.9-4.8-1l-4.4-0.2l-4.2-0.2
	c-6.4-0.3-9.6-2.8-9.6-7.4c0-3.2,0.9-5.4,2.8-6.4c1.9-1.1,5.6-1.6,11.1-1.6c5.6,0,9.3,0.5,11,1.5
	C726.4,175.8,727.3,177.9,727.3,181.2z"/>
<path class="logo_st0" d="M725.9,101.9l-0.4-1.5l-0.2-0.5l-1.4-0.9l-1-0.6l-0.8,0.8c-0.7,0.7-1.6,1.2-2.8,1.5l-0.9,0.3l-0.2,1.8
	c-1.5,1-2.9,2.4-4.3,4.1l-0.2,0.3l-0.2,1.3c-1.2,0.2-2.2,1-2.8,2.1c-0.5-0.3-0.8-0.4-1.4-0.4c-1.3,0-2.1,0.8-2.8,1.7
	c-0.5,0.5-0.7,0.6-1.4,0.7h-3.6l-9.3,1.1L687,113l-6.6-2.1l-5.2-3.8l-3.6-1l-3.2-2.9l-6.1-3.3l-4.2-3l-0.2-0.1l-4.6-1.5l-0.5-1.4
	l-0.2-0.5l-6-3.5l-4.4-3.9l-1.6-2.7l-0.4-0.7H638l-0.5-0.7l-2.9-2.3l0.5-0.1l5.8-2c2.2-0.7,5.4-2.6,9.8-5.5l5-1.1h0.3l3-2l3.2-0.7
	l0.3-0.1l3.9-2.9l5.3-2.8l3.8-4.2l2-0.9l0.9-0.4v-1.3l1-0.3l0.7-0.2l0.3-0.7c0.6-1.4,1.7-2.1,4.4-2.2h2.5L686,50
	c-0.2-0.3-0.4-0.8-0.6-1.5c0.8-0.6,1.4-1,1.8-1.2c0.7-0.3,1.2-0.6,1.7-1c0.8-0.7,1.2-1.5,2.4-3.4l2-2.3l0.2-0.2L695,35l1-0.3
	l0.8-0.3l0.4-2.9c1.6-1.6,2.6-2.9,3.2-4l0.2-0.3V26l2-0.3l-1.2-1.8c-1.4-2.3-3.2-3.9-5.4-3.9c-1,0-2.1,0.5-2.7,1.3
	c-0.6,0.9-0.7,1.8-0.7,2.9v0.7c-2.5,2.7-4,4.4-4.6,6c-0.3,0.8-0.7,1.7-1.4,2.8c-1.8,0.9-2.6,2.9-3.3,5.6l-1.7,0.2l-1.2,0.2v1.7
	c-0.7,0.5-1.4,1.3-2,2.2c-1.8,0.3-3.3,2-3.5,3.9c-0.1,0.7-0.2,1.2-0.4,1.5H673h-0.9l-1.7,3.3l-1.9,0.4l-0.8,0.2l-0.3,1.1h-0.2H666
	l-0.3,2c-0.6,0-1.2,0.2-1.8,0.5c-1.3,0.7-2,1.9-3,3.8l-5.5,2.3h-1.5c-0.6,0-1.9,0.1-2.3,1.4l-0.4,0.5h-0.1c-2.2,0-4.2,1.1-6,2.9h-1
	h-1.4v0.8c-0.7-0.1-1.4-0.2-2-0.2c-2,0.1-4.1,1.3-6.9,3.4l0,0l-0.3-0.3l-3.5-0.5l-0.6-0.1l-1.5,1.1l-1.2-0.5l-0.7-0.3l-1.1,0.8
	c-1.4-0.5-3-0.9-4.7-1.3c-0.9-0.2-1.6-0.4-2-0.5c-0.1,0-0.2-0.1-0.2-0.1l-2.3-4.2l-0.1-0.2l-0.8-0.7l1.1-1.9l0.2-0.4l-0.4-6.5
	l1.3-4.4l0.1-0.4l-1.3-6l2.2-3.5l0.3-0.6l-0.8-2.5L618,37l0.3-0.8l-1.5-1.7l0.5-4l0.1-0.6l-3-4.1l-0.2-0.3l-0.3-0.1
	c-1.5-0.7-2.9-1.1-4.2-1.1c-1.2,0-2.3,0.2-3.3,0.7l-0.5,0.2l-0.2,0.5c-1.1,2.5-1.6,4.9-1.6,7.1c0,2,0.5,3.9,1.5,5.5
	c0,0.8-0.1,1.6-0.1,2c-0.1,0.6-0.2,0.6-0.1,0.7l-0.2,0.3l-0.2,1.5l-0.1,9.3l0.3,1.7l-1,0.3V57v0.8l0.7,0.4l-0.3,1.2l-0.1,0.5
	l0.2,0.5c0,0,0.1,0.2,0,1l-0.2,1.5c0,1.2,0.1,2.4,0.6,3.3l-1.4,1.6l-0.4,0.5l0.9,5.4v4.1V78l0.7,1.2l-1.1,1.6l-0.4,0.6l1.1,3.7
	l-0.6,0.7l-0.3,0.4v0.5c0,0.7,0.1,1.6,0.8,2.2c0.1,0.3,0.1,1,0.1,2c0,1.7,0.2,3.5,0.5,5.5c-0.7,1.8-1,2.9-1.1,3.9
	c0,1.2,0.3,2.3,1,3.4l0.2,0.3l-0.6,1.5l-0.3,0.6l0.3,0.6c0.4,0.9,0.8,2.1,1.1,3.4l-1.7,2.2l-0.7,0.8l0.9,1.2
	c-0.8,0.7-1.4,1.5-1.5,2.7c0.1,0.4,0.1,0.6,0.2,0.9c0.1,0.4,0.2,0.8,0.4,1.3l-0.6,0.3l0.9,2.4c-0.5,0.8-0.8,1.6-1,2.4l-0.2,2.2
	l-0.8,2.4l-0.3,0.9l2.7,2.1l1.2,1l0.9-1.4c3.1-5,4.8-8.4,5.2-11l0.3-2.5l1.3-2.9l0.1-0.3v-4.7c0-1.2,0.4-2.6,1.3-4.2l0.2-0.4
	l-0.1-0.5c-0.2-1.4-0.9-2.6-2-3.5c1.3-3.2,2-5.8,2-8v-0.2l-1.3-4l0.5-0.1l1.3-0.3l-1-7.3l1.1-1.2l2.1,0.4l0.3,0.1h0.1l0.1,0.3
	l0.3,1.4l2.7-0.6v0.1l0.3,1.1h2.2c1.3,0,2.3,0.6,3.3,2.5l0.2,0.4l0.4,0.2c1.3,0.7,2.5,1.5,3.4,2.5c1.1,1.1,2.5,2.2,4.1,3.3
	c1.5,1,2.6,1.9,3.2,2.5l2.2,2.5l3.7,2.7l1.2,1.5l0.9,1l1.4-1l0.1,1.1l0.1,0.9l3,1l0.5,1l0.4,0.8h1.9l1,1.7l0.4,0.7h5.7l2.3,2.6
	l0.3,0.3l3.2,0.9c0.5,0.2,0.8,0.3,0.9,0.5l2.6,2.8l0.5,0.6l1.7-0.3l1.2,1.3l0.3,0.3l4.4,1.1l2.3,2.2l0.4,0.4h3.8l2.1,0.5l0.4,0.1
	l1.8-0.5l0.3,0.3l0.5,0.4l3.8-0.7l2.8,0.5l0.3,0.1l2.6-0.7l1.3,0.4l0.4,0.1l0.4-0.1c5.1-1.3,8.8-2.6,11.3-4c2.3-1.3,4.7-3.1,7.3-5.1
	l5.4-7.3l1.4-2.5l0.3-0.5L725.9,101.9z"/>
<path class="logo_st0" d="M574.6,78.9h-3.7l-1.7-0.9l-0.6-0.3l-0.7,0.3c-1.3,0.6-2.4,0.9-3.4,0.9c-0.6,0-1.6-0.3-2.8-0.9l-0.6-0.3l-2.1,0.9l-2-0.4
	c-0.7-0.6-1.6-1-2.6-1c-0.4,0-0.8,0-1.3,0.2l-2.6,0.3l-0.9-0.3l0.8-0.8l-6.2,0.4l-3-0.9l-1.6-0.4l-0.3,1.5c-0.1,0-0.3,0.1-0.7,0.1
	s-0.7,0-1-0.1c-0.7-0.6-1.5-1.1-2.4-1.2l-0.5-0.1l-2.3,1.5l-0.8-0.1L530,76l-1.5-1.1l-1.2,2.8l-0.5,0.1l-1.2,0.2v4v0.3l2,4.5
	l0.4,0.8h2.3l2,0.7l0.6,0.2l0.5-0.3c1.5-0.8,2.6-1.2,3-1.1c0.3,0,1.1,0.2,2,0.7l0.5,0.3l6-1.1l1,0.4l0.4,0.2l4.2-1l2.5,0.3l3.5-0.2
	h0.5l0.7-0.6l5.4,0.8h0.3l7.8-1.9l3.3,0.8l0.9,0.2l2.6-3.4l0.7-0.9l-0.7-0.9C577.4,79.6,576.1,78.8,574.6,78.9z"/>
<path class="logo_st0" d="M527.8,58.3l-1.2-1.2c-0.8-0.9-2-1.2-3.2-1.2c-0.8,0-1.8,0.2-2.5,0.7h-0.1h-4.5l-2.5,0.4l-3.1-0.4h-0.3l-7.3,1.9l-3.9,0.2
	l-2.9,0.5l1-13.5l-0.3-3l1.3-3.5l0.2-0.5l-1.1-2.9v-2.2v-0.2l-1.6-4.6l1-2l0.2-0.3v-3.8v-2l-2.3,0.7v-1v-1.8l-4,0.9l-0.5-1.1
	l-0.4-0.8H486h-1.8l0.7,3.5c-0.8,0.2-1.3,0.6-2.1,1.2c-1.1,0.8-1.8,2.1-1.8,3.5c0,0.7,0.2,1.3,0.5,2.2l3.6,10.7l-1.1,2.6l-0.2,0.4
	l1.3,8.3l-0.8,2.8l-0.1,0.4l0.8,3.9l-0.5,0.6l-0.7,0.8l0.8,1.2l-5.6-0.4l-20.8,2.2l-0.5-0.1c-1,0-1.6,0.2-2.3,0.5
	c-0.9-0.2-2.4-0.4-4.6-0.6l-1-0.7l-1.1-0.8l-1.7,2c-0.7-0.1-1.4-0.2-2.4-0.2l-7.5,0.4h-2.7c-0.7-0.5-1.4-0.7-2.2-0.7
	c-0.6,0-1.4,0.2-1.9,0.8c-0.1,0.1-0.1,0.2-0.2,0.3l-2-1l-0.4-0.2l-4.6,0.4l-2.8-0.3h-0.2l-4.8,0.7l-1.7-0.6l-0.2-0.1h-2.5
	c0.4-2.2,0.6-4,0.7-5.6l1-1.5l0.5-0.7l-1.4-3.4c1.3-7.5,2-12.3,2-14.5c0-1,0-1.6-0.3-2.3l-0.2-0.5l-0.5-0.3l0,0c0,0-0.1,0-0.1-0.7
	c-0.1,0,0.4-1.9,1.3-4.9l0.2-0.7l-1.7-2.1l-0.1-2.6l-0.1-1l-1-0.3c-1.3-0.4-2.5-1.1-3.8-2.2l-0.8-0.7l-4.4,2.7l-0.5,0.3l-1,5.6v4.5
	l1.1,7.4l-1,4.1v0.2l0.5,6.5l-1.2-0.5l0.6,2.7c0.2,1.2,0.3,2.1,0.3,2.6c0,2.2-0.6,5.1-1.7,8.6l-4,2.6l-0.7,0.5l0.4,6.3l0.1,0.7
	l3.4,2.1l0.5,1.9v4.7l1,15.3l0.8,2.4l-0.2,2.8l-0.1,0.7l0.3,0.3c-1.1,0.8-1.9,2-1.9,3.5c0.3,1.9,1.5,3.1,3.9,6.1l0.3,8.5
	c0.1,2.6,2.1,4.7,4.7,4.9l0.5,0.1l1.2-0.6l0.9-0.5l-0.5-3.8l0.5-1.3l0.2-0.5l-1.4-3.5l0.3-4.6v-0.3l-0.9-3l1.3-8.5l-1.5-3l1.4-3
	l0.2-0.4l-0.8-3.6l0.7-4.8v-7.2c0-3.1,0.8-4,1.7-4.3c1.6-0.5,3.5-0.8,5.7-0.8l1.2,0.5l1.7,0.6l0.1-1.1c0.8,0.3,1.5,0.6,2.2,0.7
	l2.2,0.3l0.7,0.1l1.3-1.2l0.9,0.6l0.5,0.3l4.7-1.1l2.7,2l1.4,1.1l1.5-3.2l1.8,0.5c1.4,0,2.3-0.3,3.8-0.9c1.4-0.5,2.4-0.8,2.7-0.7
	c0.6,0,1.7,0.2,3.3,0.8l0.5,0.2l1.1-0.5l8.7,1.1l7.8-2.6c0.6-0.2,1.3-0.3,2.1-0.3c0.2,0,1.2,0.1,2.4,0.3c0.3,0,0.6,0.1,0.9,0.1
	c1.4,0,2.9-0.4,4.5-1.2l1.3,0.5l0.7,0.3l1.2-0.8l0.1,0.1l0.6,0.8l2.5-0.9l-0.4,3.8V83l-0.7,1.5l-0.4,0.8l1.3,1.8l-1.2,4.3l-0.1,0.2
	l0.2,7.1l-0.6,7.5l0.3,1.1l-0.2,0.1v3.8l0.6,3.4l0.1,0.7l0.2,0.1l-0.5,0.5l1,3.1v7c0.1,1.7,1,3.4,2.7,6l0.1,1.6l0.3,2.7l2.1-1.7
	c1.4-1.2,2.3-2.8,2.3-4.6l-0.1-0.4c0.6-0.7,1.2-1.4,1.2-2.5c0-1.4-0.3-2.8-0.8-4.2l-0.5-1.3l0.3-2.7v-0.5l-0.7-1.2l0.6-2.5l0.4-1.8
	h-0.4l1.4-8.6l-0.1-8.8l0.6-0.5l0.8-0.6l-0.3-0.9c-0.5-1.6-0.7-2.8-0.7-3.2c0-0.1,0-0.2,0.3-0.6c0.7-0.9,0.9-2,0.9-3.2v-0.6
	l-0.9-0.9c0.7-2.2,1-4.8,1-7.8c0-0.5-0.2-1.2-0.5-1.8c1-1.6,1.7-3.3,1.8-5.2l0.1-1.6h-0.2l1.8-2.4l1.9,1.5l1.3,1.1l1.9-3.6l6.3-1.8
	l1.5,1l0.8,0.5l3-2.3l2.5,0.3l0.6,0.1l2.8-2.5c0.5,0.6,1.2,1.1,1.9,1.2l0.6,0.1l3.6-2.5L527.8,58.3z"/>
<path class="logo_st0" d="M366.4,88.7l-6.6-5.2l-1.2-2l-0.3-0.5l-0.7-0.1l-4.8-0.7l-5.3-3.9h-2.8l-1.2-0.4l-0.4-0.2l-2.4,0.6h-0.2l0,0
	c0,0,0,0-0.3-0.2s-0.8-0.6-1.4-1.1c-1.4-1.4-3.2-2.1-5.2-2.1c-1,0-1.9,0-2.6,0.2c-1.6-0.8-3.8-1-6.8-1.1l-2.6-1.7l-0.4-0.3h-1.8
	h-0.6l-0.6-0.4l-0.3-0.2l-5.5-0.5v-2.5l-2.2,1.3c-0.7,0.5-1.2,0.6-1.4,0.6c0,0.1-1-0.3-2.5-1.3c-1.7-1.1-3.3-1.9-4.9-2.4l-0.4-0.1
	l-2.1,0.7l-5.5-3.7h-3.9l0,0l-0.2-0.6l-0.6-0.2c-2.9-1.1-4.7-1.9-5-2.2l-2.2-1.5l-0.2-0.1l-2.5-0.6l-0.6-1.4l-0.2-0.4l-1.7-0.8
	c-0.2-1.2-0.5-2.5-0.9-4l4.9-3.4l1.8-2.4h1.8h0.5l4.2-3.3l2.3,0.6l0.4,0.1l12.1-4.5l4.3-0.4h0.6l0.4-0.5c0.7-0.8,1.1-0.9,1.5-1
	c0.3,0,0.4,0,0.5,0c0.2,0,0.2,0.1,0.2,0l0.8,0.4l0.7-0.5c0-0.1,2.5-0.7,6.4-0.9h0.3l1.6-0.9l5.8,1.6l0.3,0.1l5.5-0.7l2.2,1.7
	l1.1,0.8l1.6-1.9l0.2,0.2l0.5,0.5l3.9-0.5l1.6,2l0.4,0.5h3.2l5.4,1.8l0.5,1.1l0.4,1l1.1-0.2c3.5-0.4,6.2-2.6,6.1-5.8
	c0-4.1-3-7-7.8-8.5c-1.5-0.4-2.8-0.9-4.1-1.3h0.2h-0.3c-2.1-0.7-3.9-1.2-5.5-1.3c-1.4-0.5-3.3-0.7-6-0.7h-0.9
	c-1.7,0-2.2-0.4-2.5-1.1l-0.7-1.5l-3.4,2.2l-1.5,0.4l-1.2,0.3l-8.7,0.5h-1c-0.6,0-1.2,0.1-1.8,0.3c-0.5-0.4-1.1-0.3-1.3-0.3
	l-2.4,0.2h-0.5l-1.4,1.3l-0.4,0.4c-0.3,0.1-0.8,0.1-1.2,0.2l-0.8,0.1c-0.2,0-0.4,0-0.5,0c-0.7,0-1,0.1-1.5,0.1
	c-0.8,0-1.6,0.1-2.3,0.5l-1.5,0.3c-4,1-4.3,1.7-6.8,1.7h-1l-0.3,1c0,0.3-0.9,0.6-2.5,0.8l-2.2,0.4v0.5l-5.1,1.8l-0.8-1.2l-2.2,3.2
	l-0.1-0.2l-0.9,0.1c-1.5,0.2-3.1,0.9-5.1,2.2l-0.4,0.3l-0.2,0.5c-0.5,1.6-1.1,2.3-1.8,2.6l-0.4,0.2l-3.3,4.3l-0.2,0.3l-0.8,6.1
	l-0.1,0.6l0.4,0.5c0.7,0.7,2,3.3,3.6,7.3l0.1,0.2l3.1,3.2l1.2,2.9l0.5,1.2l2.5-0.7c2.4,2.1,6.2,2.9,11.6,3.1l2.3,2.7l0.4,0.5h2.8
	h0.2l0.3,0.4l0.4,0.6h3.4l1.9,1.4l0.3,0.3h3.6l5.1,2.6l0.5,0.3l2.7-0.7l1.6,1.8l0.7,0.8l2.6-1.1l0.5,0.6l0.6,0.8l1-0.3
	c0.5-0.2,1.7-0.3,3.2-0.3c2.3,0,4,0.6,5.5,1.9l0.2,0.1l0.2,0.1c4,1.5,7,2.2,9.5,2.3l8.1,3.3c9.7,3.9,14.1,7.9,13.8,9.2
	c0.1,0.1-0.6,1.9-2.2,4.2l-0.2,0.3v0.4c-0.1,0-0.3,0.1-0.7,0.1c-1.5,0.1-2.2,0.9-3.3,2l-0.8,0.9l0.1,0.2c-1.7,0-3.5,0.7-4.1,2.2h-2
	h-1.4v0.6l-4.6,1.9l-0.9-0.1c-0.9,0-1.4,0.3-1.7,0.6c-1.8,0.1-3.2,0.1-4.2,0.2c-1.3,0.3-1.5-0.2-2.8,0.8l-0.1,0.1l-2.9,0.7l-5.6-0.7
	l-0.8-0.1l-1.6,2.2l-5.7,1.7c-1-0.5-2-0.8-3.1-0.8c-1,0-2.1,0.3-3,0.8c-1.5-0.4-3-0.6-4.3-0.6c-1.4,0-2.7,0.2-3.9,0.8
	c-0.6-0.4-1.3-0.6-2-0.6c-1.4,0-3,0.4-4.8,1.2H295l-0.3-0.1h-3.2l-1.6-0.1l-0.1-0.2l-0.3-0.9h-0.9c-2-0.1-3.3-0.3-3.7-0.5
	c-0.8-0.3-1.6-0.5-2.3-0.5c-0.7,0-1.3,0.1-1.9,0.4H272l-0.1-0.2l-0.3-0.6l-1.4-0.2l1.6-1.1l-11.4-0.8l0.5,1.5l-1.2,0.1
	c-1.6-1-2.7-1.6-3.8-1.8l-1.8-0.3c-1.6-1.9-3.3-3.4-5.1-4.5v-2.4V104l-0.2-0.4c0.3-0.2,0.7-0.4,1.1-0.6c0.9-0.6,1.7-1.1,2.1-2.2
	c1-1,2.1-1.7,3.4-1.9l1.2-0.2v-1.2c0-2.4-1-4.9-3.5-4.9c-1.4,0.2-2.1,0.9-3,1.9l-1.5,0.1l-5.1,0.5l2.3,1.1l-0.1,0.6
	c-0.3,1.2-0.3,1-0.8,1.1l-1.2-0.2l-1.2-0.2l-0.3,1.2c-0.9,2.9-1.3,4.7-1.4,5.8c0.1,2.8,1.7,5.9,4.7,9.7l0.3,0.4l4.4,1.2l7.2,5.1
	l0.8-0.4c0.4-0.2,0.5-0.2,0.5-0.2c0-0.1,1.5,0.3,3.5,1.1c2.3,0.9,4.7,1.3,7.2,1.3h1.4l0.6,0.6l0.7,0.7l3.4-1.4
	c2.1,1.4,3.8,2.2,5.6,2.2c1,0,2-0.3,3.2-0.9l4,0.7l9.9,0.4l0.9-0.8l0.9,0.6l0.4,0.2h6.5h0.8l0.4-0.6c0.3-0.3,0.3-0.3,0.4-0.3
	c0,0,0,0,0.1,0.1l0.3,0.3l2.5,0.4l0.5,0.1l3.7-1.7l4.9,0.3c1.6,0,3.5-0.6,6-1.6l5.6,0.5l1,0.1l0.2-0.5c0.5-0.1,1.7-0.3,3.4-0.4h0.2
	l1.9-0.7l1,0.7l0.9,0.6l3.8-3.4l3.4,0.3h0.4l0.4-0.2c1.3-0.6,2.5-1.5,3.4-2.5c2.5-0.1,4.8-1,6.6-2.6c1.2,0,2.6-0.5,3.3-1.5
	c2.3-1.1,4.2-2.7,5.8-4.9c1.6-2.3,2.6-3.8,2.6-5.6l-0.2-3C369.8,94.2,368.8,90.8,366.4,88.7z"/>
<path class="logo_st0" d="M242.4,121.6c-1.5,0-2.8,0.6-3.7,1.6c-0.6,0.2-1.1,0.5-1.7,1l-1-0.5l-1.2-0.6l-1,1.7l-5.6-1.2l-5.1-4.9
	c-0.8-0.8-1.5-2-2.3-3.8l-2.3-3.3c-2.1-5.7-3.7-10.8-4.5-14.8l-1-3.4c0.3-0.3,0.5-0.8,0.5-1.4c0-1.2-0.6-2.1-1.4-2.9
	c0-2.1-0.3-4.1-0.8-6.1l0,0h2.6l-2.8-4.7l0.5-5.4v-0.3l-1-2.9l0.6-1.4l0.6-0.2l1.6-0.5l-0.7-1.5c-0.4-0.7-0.9-1.4-1.8-2.1
	c-0.5-0.4-0.6-0.7-0.6-1c0.2-0.3,0.7-1.3,1.6-2.5l0.3-0.4l-0.4-5l1.3-3.3l0.1-0.3v-3.3l1.1-2l0.2-0.3v-1.5c0.8-0.1,1.6-0.3,2.3-0.8
	c0.8-0.7,1.2-1.8,1.2-2.8l-0.3-3.2l0.7-1.4l0.6-1.1l-1-0.7c-1.7-1.3-2.9-2.5-3.7-3.5l-0.2-0.3l-3.2-1.6l-0.9-0.5l-2.6,2.1l-0.3,0.2
	l-0.2,0.3c-0.7,1.8-1.1,3.3-1.2,4.7l-0.3,3.4c-0.3,2-0.7,3.4-1,3.9l-1.1,2.3l-0.1,0.2l-0.8,4.6c-0.7,1.8-1.2,3.6-1.5,5l-3.9,7.5
	l-0.8,0.4l-0.9,0.4v1.8c-1.5,0.3-2.8,1.4-3.6,2.8l0,0h-0.3l-0.2,0.8l-0.1,0.2l0,0l-0.2,1.1l-2.4,1.1l-0.4,0.1l-2,2.6l-1.4,0.7
	l-0.8,0.4V78l-1.5,1.2l-0.3,0.2l-0.5,1.1l-2.9,1.3l-0.5,0.2l-1.1,2.6H177l-1.4-0.4l-1,3.1l-4.9,2.5l-0.6,0.3l-0.2,0.7
	c-0.2,1-0.4,1.7-0.6,2.2c-0.1,0.2-0.2,0.4-0.2,0.5l0,0c0,0-0.3,0.2-1.2,0.1h-0.4l-1.1,1.1l-1.6,0.3l-1.2,0.2v1.6
	c-1.4,0.5-2.9,1.3-4.8,2.6l-0.5,0.3l-0.2,0.9c-0.2,0-0.3,0-0.5,0c-1.4,0-2.7,0.9-3.3,2.1l-2.5,1.1l-0.5,0.2l-1.1,2.3l-2.3-0.5
	l-1.5-0.4l-0.5,3.4c-0.3,0.2-0.6,0.4-0.8,0.7H144c-0.7,0.1-0.9,0.2-1.8,0.5l-0.7,0.2l-0.3,0.9l-3.3-0.2h-2.5c-0.5-0.7-1-1.9-1.2-3.5
	c-0.4-2.2-1-4.1-1.7-5.7c-0.6-1.2-0.9-2.4-0.9-3.7c0-0.6,0.1-1.2,0.3-1.8l1.4-1l1.5-1.1l-2.6-2.1l0.7-1l0.2-0.4v-0.4
	c0-3.8,0.3-6.5,0.7-8.1l0.2-0.7l-0.4-0.6c-0.9-1.1-1.2-1.9-1.2-1.9c-0.1-0.6-0.1-1.4-0.1-2.5c0-3.9,0.8-9.9,2.5-17.9l0.1-0.5
	l-0.2-0.4c-1.2-2.7-1.8-4.6-1.7-5.3c0-0.5,0.1-1.6,0.3-3l2.2-11.2l1.3-1.9l0.3-0.5l-0.1-0.6c-0.8-4.1-3.8-7-8.1-7.5l-4.4-0.7
	l2.4,2.4c-0.3,0.4-0.4,0.8-0.5,1.3l0,0h-3.5l2.7,2.7l-0.6,3.6v0.2l0.8,7.5l-1.3,5.5l-0.1,0.3l0.7,3.4l-1.2,2l-0.2,0.3v2.4v0.3l1.4,3
	l-0.7,3.5l-0.1,0.6l1.4,1.8c-0.1,0.4-0.2,0.5-0.4,0.7c-0.9,0.6-1.6,1.3-2.1,2l-0.4,0.7l0.9,2.2l0.7,9.5l-0.5,2.9l-0.1,0.3l0.5,2.8
	l-1,3.5l-0.1,0.2l0.6,8.1l0.7,1.7l1.9,11.8l1.6,1.6v2.8v0.9l0.7,0.4c0.3,0.1,1.7,1.5,3.6,3.7l0.5,0.6l4.8-0.5l3.6-0.3l-1.2-1h2.2
	h2.3l-0.6-1.3l0.3-2.1l2.3-0.8c0.9-0.2,1.9-0.8,3-1.6l2.4-2l6.4-3.9l14.9-11.5l2.7-3.6l2.7-1.2l0.3-0.1l2.3-2.6
	c1.4-0.5,2.5-1.7,2.6-3.1c1.8-1.9,3.1-3.1,3.3-3.3l1.8-1.2c2.2-2.3,3.4-3.6,3.9-4.9l3.5-2.6l3.7-5c0.3,1.4,0.8,2.8,1.4,4.2l0.2,7.1
	l2.9,18l1.9,3.8l1.2,4.7l0.1,0.2l2.3,3.6l1.3,4.9l0.1,0.3l2.8,3.2l-0.4,0.2l0.7,1.3c1.7,3.1,4.1,5.5,7,7.1l0.8,0.4l0.9-0.6
	c0.3,0.3,0.6,0.7,1,1.1c1.6,1.8,4.2,2.5,7.4,2.5l2.2-0.2h0.4l2.9-2l2,0.7l1.4,0.5l0.8-2.6l4.2-1.4l0.9-0.3l0.6-5.4l0.2-1.4l-1.5-0.2
	L242.4,121.6z"/>
<path class="logo_st0" d="M102,48v-1.7v-0.8l-6.5-4.3l-1.6-2.4l-0.4-0.7h-2.6c-1.5-1.1-2.7-1.9-3.9-2.4v-1.3V32l-3.3,1.8c-1.7-2.2-4.3-3.4-7.4-3.4
	h-0.1l-0.5-0.8L75.3,29l-0.7-0.1c-1.1-0.1-2-0.3-2.6-0.4c-0.3-0.1-0.5-0.1-0.7-0.2h-0.1L67.8,26l-0.4-0.2h-4.8l-0.2-0.3L62,24.8
	l-0.9-0.1c-2.1-0.1-4.9-0.6-8.2-1.6L52.7,23h-1.5c-0.7-1.4-2.1-1.4-3.3-1.4h-0.7h-0.6l-0.9,0.9c-0.2-0.1-0.4-0.2-0.6-0.3
	c-0.6-0.2-0.9-0.5-1-0.6l-0.3-0.4L36.9,20l-5.7-0.2h-8.5c-0.6-0.7-1.6-1.3-2.5-1.2c-0.6,0-1.1,0.2-1.8,0.4l-1.2-0.6l-1-0.5l-0.7,0.8
	c-0.4,0.4-0.5,0.4-0.7,0.4c0,0-1-0.1-2.4-0.4l-0.5-0.1l-0.5,0.3c-1.3,0.7-2.8,1.1-4.6,1.2c-2.1,0.3-3.5,0.2-4.6,1.9L2,22.3v1.2
	l-1.7,2.3L0,26.3l0.1,0.6c0.4,2.8,1.6,5.3,3.4,7.6l0.8,1l1.1-0.7c1.6-1.1,2.8-1.5,3.2-1.6l2.6-0.4h0.2l3.7-2h1.3h1.4v-0.9l2.3-0.7
	l1.6,1l0.8,0.5l3-1.7l3.6,2.2l0.6,0.4l0.7-0.3c2.3-0.9,4.1-1.6,5.4-2l6.6,0.9c1,1,2.4,1.6,3.9,1.6h2.3l2.4,1.3l0.3,0.2h3l2.3,1.5
	L57,35l4.4-0.1l2.9,1.9l2.3,1.6V36c4.3,0.6,8.4,2.4,12.3,5.3l7.1,3.1l3.2,2.9l0.3,0.3l1.8,0.4c1.4,1.9,2.6,4,3.5,6.4l-0.6,3.3
	l-1,0.8l-0.3,0.3l-0.4,1.3L92.3,60l-0.8,0.3c-0.9,0.4-1.8,1-2.2,2c-0.2,0.1-1,0.4-2.1,0.5l-1.1,0.1l-0.2,1C85.4,65.8,85,66,84,66.1
	c-0.7,0-1.4-0.1-1.9-0.2l-1.4-0.3l-0.3,1.5c-0.1,0.4-0.2,0.7-0.6,1.1l-0.4,0.4v0.2h-0.1c-0.3,0.1-0.8,0.2-1.4,0.3L67.2,72l-0.4,0.7
	h-1.7h-0.6L62,74.9L59.4,75H59l-0.4,0.3c-2.4,2-4.6,2.9-6.8,2.9c-1.1,0-1.8-0.1-2.2-0.3l-0.8-0.4L47.2,79c-2.4,0.1-4.6,1-6.5,2.6
	h-3.5h-0.4l-4.5,2.8c-0.5-0.2-0.8-0.6-1-1.7l1.1-1.6l0.3-0.5l-0.4-2.8l0.7-3l0.1-0.3l-0.7-4.1l1.4-4l0.1-0.4l-0.7-3.6l1.8-1.8
	l0.4-0.4l0.2-5.1l1.3-1.3l0.8-0.8l-0.6-1c-1.4-2.2-2-3.9-1.9-4.5c0-0.5,0.4-2,1.4-3.9c1.1-2.1,1.7-3.6,1.7-4.9c0-3.9-3.5-5.8-8-5.8
	c-0.9,0-1.9,0.2-2.6,0.8c-0.8,0.6-1.1,1.6-1.1,2.5l0.3,2.1L26.2,39l-0.4,0.3l-1.3,3.4l-0.1,0.2L24,53.7l-0.7,4.6l0.4,8.5l-0.8,1
	l-0.3,0.3l-0.5,11.6l-1.1,2L20.8,82v3c-0.7,0-1.4,0.2-2,0.7L18.5,86l-9.8,0.9l3.8,5.5l7.9,1.4l0.6,0.8l-0.3,2.1V97l0.7,3.3l-0.9,0.9
	l-0.7,0.7l2.3,4.4v7.5v0.3l3.6,7.7l2.7,4.9l0.6,1.1l4-1.5h0.8c1.5,0,2.8-0.3,3.9-1s1.6-2.1,1.6-3.3c0-1.2-0.6-2.3-1.4-3.1l-0.5-0.4
	l-3.5,0.3V117v-0.3l-0.8-2v-3.6v-0.5l-1-1.3l0.8-0.5l-1.6-5.9l0.9-4.2l0.1-0.5l-1.8-3.6l0.7-2.3c1.3-0.4,2.6-1,3.8-1.8l2.4-0.8
	l1.6-0.9c1.3,0.1,2.4,0.2,3.1,0.4c0.8,0.1,1.1,0.3,1.1,0.3l1.3,1.1l1-1.6c0.6-1,1-1.8,1.3-2.4l3.4,0.3h0.5l1.2-0.9l7.9-1.6l2.5-2.3
	h3.8h0.5l1.8-1.4c0.5-0.1,1.1-0.4,1.5-0.9c0.2-0.2,0.3-0.5,0.4-0.7l1.2-0.1h0.4l2.2-1.7h3.3h1.4v-1.2c3-0.1,5.5-1.2,7.2-3.4
	c3.9-1,6.7-2.3,8.3-4.6c1-0.3,1.7-1.1,2.4-2c0.6-0.8,1.3-1.2,2.5-1.5l1.1-0.3v-1.9l2.5-2.5c0.8-0.9,1.5-1.8,2-2.9l1.1-2.3l0.3-0.8
	l-0.5-0.7L102,48z"/>
</svg>
