<?xml version="1.0" encoding="utf-8"?>
<!-- Generator: Adobe Illustrator 21.0.2, SVG Export Plug-In . SVG Version: 6.00 Build 0)  -->
<svg version="1.1" id="Capa_1" xmlns="http://www.w3.org/2000/svg" xmlns:xlink="http://www.w3.org/1999/xlink" x="0px" y="0px"
	 viewBox="0 0 522 574.5" style="enable-background:new 0 0 522 574.5;" xml:space="preserve">
<style type="text/css">
	.st0{display:none;}
	.st1{display:inline;}
	.st2{fill:none;stroke:#B6000F;stroke-width:10;stroke-miterlimit:10;}
	.st3{display:inline;fill:#B6000F;}
	.st4{fill:url(#SVGID_1_);stroke:#B6000F;stroke-width:10;stroke-miterlimit:10;}
	.st5{fill:url(#SVGID_2_);stroke:#B6000F;stroke-width:10;stroke-miterlimit:10;}
	.st6{fill:url(#SVGID_3_);stroke:#B6000F;stroke-width:10;stroke-miterlimit:10;}
	.st7{fill:#B6000F;}
</style>
<g class="st0">
	<g class="st1">
		<path class="st2" d="M316.7,147.1h95.6L297.6,13.3V128C297.6,139.5,307.1,147.1,316.7,147.1z"/>
		<path class="st2" d="M364.5,338.4c17.2,0,32.5,3.8,47.8,9.6V166.3h-95.6c-21,0-38.3-17.2-38.3-38.3V13.3H87.2
			c-21,0-38.3,17.2-38.3,38.3v439.9c0,21,17.2,38.3,38.3,38.3h172.1c-11.5-19.1-19.1-42.1-19.1-66.9
			C240.2,393.8,295.6,338.4,364.5,338.4z"/>
		<path class="st2" d="M364.5,357.5c-57.4,0-105.2,47.8-105.2,105.2s47.8,105.2,105.2,105.2s105.2-47.8,105.2-105.2
			S421.9,357.5,364.5,357.5z M354.9,514.3L309,468.4l13.4-13.4l30.6,30.6l59.3-59.3l13.4,13.4L354.9,514.3z"/>
	</g>
</g>
<g class="st0">
	<path class="st3" d="M131.7,290.4v-70h27.7c8.1,0,14.6,2.1,19.4,6.4s7.2,10,7.2,17.2c0,5.1-1.3,9.5-3.8,13.2
		c-2.6,3.7-5.9,6.4-10.1,8.2c-4.2,1.8-8.9,2.6-14.1,2.6h-14v22.4H131.7L131.7,290.4z M144,256.8h14.3c4.6,0,8.3-1.2,11-3.5
		s4.1-5.4,4.1-9.2c0-4-1.3-7.1-4-9.3s-6.4-3.2-11.1-3.2H144V256.8L144,256.8z"/>
	<path class="st3" d="M198.5,290.4v-70h26.1c5.4,0,10.4,0.9,15.1,2.7c4.6,1.8,8.6,4.2,11.8,7.3s5.7,6.8,7.6,11.1
		c1.8,4.3,2.7,8.9,2.7,13.8s-0.9,9.5-2.7,13.8c-1.8,4.3-4.4,8-7.6,11.1s-7.2,5.6-11.8,7.4s-9.7,2.7-15.1,2.7L198.5,290.4
		L198.5,290.4z M210.8,279.1h13.8c7.3,0,13.2-2.2,17.6-6.6c4.5-4.4,6.7-10.1,6.7-17.2c0-6.9-2.2-12.6-6.7-17.1s-10.3-6.7-17.6-6.7
		h-13.8V279.1L210.8,279.1z"/>
	<path class="st3" d="M276.7,290.4v-70h52.1v11.2H289v19.1h35.3v11.2H289v28.5H276.7z"/>
</g>
<g>
	<g>
		
			<linearGradient id="SVGID_1_" gradientUnits="userSpaceOnUse" x1="359.8963" y1="415.5151" x2="327.7115" y2="566.933" gradientTransform="matrix(1 0 0 -1 0 574)">
			<stop  offset="1.118836e-07" style="stop-color:#83919A"/>
			<stop  offset="0.189" style="stop-color:#E7EAEC"/>
			<stop  offset="0.6425" style="stop-color:#FFFFFF"/>
		</linearGradient>
		<path class="st4" d="M317.4,147.2H413L298.4,13.3v114.6C298.4,139.5,307.7,147.2,317.4,147.2z"/>
		
			<linearGradient id="SVGID_2_" gradientUnits="userSpaceOnUse" x1="273.1169" y1="47.1764" x2="160.5177" y2="576.9161" gradientTransform="matrix(1 0 0 -1 0 574)">
			<stop  offset="1.118836e-07" style="stop-color:#83919A"/>
			<stop  offset="0.3007" style="stop-color:#E7EAEC"/>
			<stop  offset="0.6425" style="stop-color:#FFFFFF"/>
		</linearGradient>
		<path class="st5" d="M365.3,338.1c17.3,0,32.6,4,47.6,9.7V166.2h-95.6c-21,0-38.3-17.3-38.3-38.3V13.3H88.2
			c-21,0-38.3,17.3-38.3,38.3v439.7c0,21,17.3,38.3,38.3,38.3h171.9c-11.3-19-19-42-19-67C241.1,393.7,296.4,338.1,365.3,338.1z"/>
		
			<linearGradient id="SVGID_3_" gradientUnits="userSpaceOnUse" x1="387.1319" y1="8.7969" x2="343.4404" y2="214.35" gradientTransform="matrix(1 0 0 -1 0 574)">
			<stop  offset="1.118836e-07" style="stop-color:#83919A"/>
			<stop  offset="0.3007" style="stop-color:#E7EAEC"/>
			<stop  offset="0.6425" style="stop-color:#FFFFFF"/>
		</linearGradient>
		<path class="st6" d="M365.3,357.4c-57.3,0-105.3,47.6-105.3,105.3s47.6,105.3,105.3,105.3s105.3-47.6,105.3-105.3
			S422.6,357.4,365.3,357.4z M355.7,513.9l-46-46l13.3-13.3l30.6,30.6L413,426l13.3,13.3L355.7,513.9z"/>
	</g>
</g>
<g>
	<path class="st7" d="M140.8,299.9v-72.2h28.5c8.2,0,15.1,2.1,19.9,6.5c4.8,4.5,7.6,10.3,7.6,17.9c0,5.2-1.4,9.6-4.1,13.7
		c-2.7,3.8-6.2,6.5-10.3,8.2c-4.1,1.7-9.3,2.7-14.4,2.7h-14.4v23H140.8L140.8,299.9z M153.5,265.5h14.8c4.8,0,8.6-1,11.3-3.8
		c2.7-2.4,4.1-5.5,4.1-9.6c0-4.1-1.4-7.2-4.1-9.6c-2.7-2.4-6.5-3.4-11.3-3.4h-14.8V265.5L153.5,265.5z"/>
	<path class="st7" d="M209.9,299.9v-72.2h26.8c5.5,0,10.7,1,15.5,2.7c4.8,1.7,8.9,4.5,12.4,7.6c3.4,3.1,5.8,7.2,7.9,11.3
		c2.1,4.5,2.7,9.3,2.7,14.4c0,5.2-1,9.6-2.7,14.1c-1.7,4.5-4.5,8.2-7.9,11.3s-7.6,5.8-12.4,7.6c-4.8,1.7-10,2.7-15.5,2.7
		L209.9,299.9L209.9,299.9z M222.3,288.5h14.4c7.6,0,13.4-2.4,18.2-6.9c4.8-4.5,6.9-10.3,6.9-17.9c0-7.2-2.4-13.1-6.9-17.5
		c-4.5-4.5-10.7-6.9-18.2-6.9h-14.4V288.5L222.3,288.5z"/>
	<path class="st7" d="M290.3,299.9v-72.2h53.6v11.7H303V259h36.4v11.7H303v29.2C303,299.9,290.3,299.9,290.3,299.9z"/>
</g>
</svg>
