<?xml version="1.0" encoding="utf-8"?>
<!-- Generator: Adobe Illustrator 21.0.2, SVG Export Plug-In . SVG Version: 6.00 Build 0)  -->
<svg version="1.1" id="Слой_1" xmlns="http://www.w3.org/2000/svg" xmlns:xlink="http://www.w3.org/1999/xlink" x="0px" y="0px"
	 viewBox="0 0 156.4 146.6" style="enable-background:new 0 0 156.4 146.6;" xml:space="preserve">
<style type="text/css">
	.st0{fill:#FFFFFF;}
</style>
<path class="st0" d="M0,37.9c1.2-7.4,4.8-13.8,9.3-19.7C13.9,12,19.5,6.5,25.4,1.5c2.4-2.1,5.8-1.9,8,0.4c9.1,9.2,17.3,19.1,25,29.5
	c1.5,2.1,1,5-1.1,6.7c-5.6,4.5-10.6,9.6-15,15.2c-1.9,2.4-2,4.3-0.2,6.8c6.6,9.4,13.8,18.3,22.2,26.2c9,8.5,18.9,15.6,30,21.1
	c0.4,0.2,0.8,0.4,1.2,0.6c3,1.4,4.5,1.3,6.7-1.2c3-3.5,5.7-7.2,8.4-10.9c1.1-1.5,2.2-3.1,3.1-4.7c1.6-3,5.4-4,8.6-1.9
	c2,1.3,3.9,2.6,5.9,3.9c8.5,5.5,16.9,11,25.5,16.3c2.8,1.7,3.7,5.5,1.7,8.3c-7.1,9.9-15.5,18.4-25.7,25.2c-5.9,4-11.9,4.6-18.6,2.9
	c-14.4-3.7-27.9-9.5-40.7-17c-16.9-9.8-31.7-22.1-44.1-37.3C15.3,78.1,7,63,1.3,46.6C0.8,45.2,0.4,44,0,42.8C0,41.2,0,39.6,0,37.9z"
	/>
</svg>
